<svg width="169" height="51" viewBox="0 0 169 51" fill="none" xmlns="http://www.w3.org/2000/svg">
<g clip-path="url(#clip0)">
<g filter="url(#filter0_b)">
<path d="M0 6.67984C0 2.99067 2.99067 0 6.67984 0H162.32C166.009 0 169 2.99067 169 6.67984V43.419C169 47.1081 166.009 50.0988 162.32 50.0988H6.67984C2.99067 50.0988 0 47.1081 0 43.419V6.67984Z" fill="white" fill-opacity="0.5"/>
</g>
<path fill-rule="evenodd" clip-rule="evenodd" d="M0 43.419V6.67984C0 2.99067 2.99067 0 6.67984 0H162.32C166.009 0 169 2.99067 169 6.67984V43.419C169 47.1081 166.009 50.0988 162.32 50.0988H6.67984C2.99067 50.0988 0 47.1081 0 43.419ZM1.00198 43.419V6.67984C1.00198 3.54404 3.54404 1.00198 6.67984 1.00198H162.32C165.456 1.00198 167.998 3.54404 167.998 6.67984V43.419C167.998 46.5548 165.456 49.0968 162.32 49.0968H6.67984C3.54404 49.0968 1.00198 46.5548 1.00198 43.419Z" fill="#08605F"/>
<path d="M38.1901 26.0697C38.1729 23.1335 39.5032 20.9205 42.1898 19.2888C40.6872 17.1361 38.414 15.9521 35.4175 15.7239C32.5802 15.5001 29.476 17.3772 28.3394 17.3772C27.1382 17.3772 24.3914 15.8014 22.2301 15.8014C17.7698 15.8703 13.0295 19.3577 13.0295 26.4529C13.0295 28.5496 13.4127 30.7152 14.1791 32.9454C15.2038 35.8817 18.8978 43.0759 22.7511 42.9597C24.766 42.9123 26.191 41.5303 28.813 41.5303C31.3575 41.5303 32.6749 42.9597 34.9223 42.9597C38.8101 42.9037 42.151 36.3639 43.1241 33.419C37.9103 30.9606 38.1901 26.2204 38.1901 26.0697V26.0697ZM33.6652 12.9384C35.848 10.3465 35.6499 7.9872 35.5854 7.13904C33.6566 7.25098 31.4264 8.45218 30.1563 9.92892C28.757 11.5133 27.9347 13.4722 28.1112 15.6809C30.195 15.8402 32.098 14.7681 33.6652 12.9384V12.9384Z" fill="#08605F"/>
<path d="M61.7064 36.2541H59.4951L58.2838 32.4303H54.0735L52.9197 36.2541H50.7668L54.9382 23.236H57.5146L61.7064 36.2541ZM57.9187 30.826L56.8233 27.4267C56.7074 27.0794 56.4903 26.2616 56.1699 24.9743H56.131C56.0034 25.528 55.798 26.3457 55.5156 27.4267L54.4397 30.826H57.9187Z" fill="#08605F"/>
<path d="M72.4337 31.4453C72.4337 33.0417 72.0043 34.3036 71.1455 35.23C70.3762 36.0546 69.421 36.4665 68.2808 36.4665C67.0501 36.4665 66.166 36.0223 65.6275 35.1341H65.5885V40.079H63.5126V29.9574C63.5126 28.9537 63.4863 27.9237 63.4357 26.8672H65.2614L65.3773 28.3551H65.4162C66.1085 27.234 67.1591 26.6745 68.5691 26.6745C69.6713 26.6745 70.5914 27.1118 71.3276 27.9873C72.0656 28.8637 72.4337 30.0161 72.4337 31.4453ZM70.3188 31.5216C70.3188 30.6079 70.1143 29.8547 69.7034 29.2619C69.2545 28.6437 68.6518 28.3345 67.8962 28.3345C67.3841 28.3345 66.9186 28.5067 66.5029 28.8461C66.0861 29.1885 65.8135 29.6356 65.6859 30.1892C65.6216 30.4475 65.5895 30.6588 65.5895 30.8251V32.3902C65.5895 33.073 65.7979 33.6492 66.2146 34.1197C66.6314 34.5902 67.1728 34.825 67.8388 34.825C68.6207 34.825 69.2292 34.5218 69.6645 33.9172C70.1007 33.3117 70.3188 32.5135 70.3188 31.5216Z" fill="#08605F"/>
<path d="M83.1808 31.4453C83.1808 33.0417 82.7514 34.3036 81.8916 35.23C81.1234 36.0546 80.1682 36.4665 79.028 36.4665C77.7972 36.4665 76.9131 36.0223 76.3756 35.1341H76.3366V40.079H74.2607V29.9574C74.2607 28.9537 74.2344 27.9237 74.1838 26.8672H76.0095L76.1253 28.3551H76.1643C76.8556 27.234 77.9063 26.6745 79.3172 26.6745C80.4184 26.6745 81.3386 27.1118 82.0766 27.9873C82.8118 28.8637 83.1808 30.0161 83.1808 31.4453ZM81.0659 31.5216C81.0659 30.6079 80.8605 29.8547 80.4496 29.2619C80.0007 28.6437 79.3999 28.3345 78.6433 28.3345C78.1302 28.3345 77.6657 28.5067 77.249 28.8461C76.8323 29.1885 76.5606 29.6356 76.433 30.1892C76.3697 30.4475 76.3366 30.6588 76.3366 30.8251V32.3902C76.3366 33.073 76.545 33.6492 76.9598 34.1197C77.3766 34.5893 77.9179 34.825 78.5859 34.825C79.3678 34.825 79.9763 34.5218 80.4116 33.9172C80.8478 33.3117 81.0659 32.5135 81.0659 31.5216Z" fill="#08605F"/>
<path d="M95.1965 32.6036C95.1965 33.7109 94.8138 34.6118 94.0456 35.3074C93.2014 36.0674 92.0261 36.447 90.5159 36.447C89.1216 36.447 88.0037 36.177 87.1576 35.636L87.6386 33.8977C88.55 34.4514 89.55 34.7292 90.6396 34.7292C91.4214 34.7292 92.03 34.5512 92.4672 34.1971C92.9024 33.843 93.1196 33.3676 93.1196 32.7748C93.1196 32.2465 92.9404 31.8014 92.5811 31.4405C92.2238 31.0795 91.6269 30.744 90.7934 30.4339C88.5247 29.5838 87.3913 28.3385 87.3913 26.701C87.3913 25.6308 87.7886 24.7534 88.5841 24.0706C89.3767 23.3868 90.4341 23.0454 91.7564 23.0454C92.9355 23.0454 93.9151 23.2518 94.697 23.6636L94.178 25.3638C93.4477 24.9647 92.622 24.7651 91.698 24.7651C90.9677 24.7651 90.3971 24.9461 89.9881 25.3061C89.6425 25.6279 89.4692 26.0202 89.4692 26.4848C89.4692 26.9994 89.6668 27.4249 90.0641 27.7594C90.4098 28.0686 91.0378 28.4031 91.9492 28.7641C93.0641 29.215 93.883 29.7423 94.4097 30.3468C94.9346 30.9494 95.1965 31.7036 95.1965 32.6036Z" fill="#08605F"/>
<path d="M102.06 28.4325H99.7716V32.9901C99.7716 34.1492 100.175 34.7284 100.983 34.7284C101.354 34.7284 101.662 34.6961 101.905 34.6315L101.962 36.2152C101.553 36.3688 101.015 36.4461 100.348 36.4461C99.5282 36.4461 98.8875 36.1947 98.425 35.6929C97.9644 35.1901 97.7326 34.3468 97.7326 33.1622V28.4306H96.3695V26.8654H97.7326V25.1467L99.7716 24.5285V26.8654H102.06V28.4325Z" fill="#08605F"/>
<path d="M112.384 31.4834C112.384 32.9263 111.973 34.1109 111.153 35.0373C110.294 35.991 109.152 36.4665 107.73 36.4665C106.359 36.4665 105.267 36.0096 104.453 35.096C103.639 34.1823 103.232 33.029 103.232 31.639C103.232 30.1843 103.651 28.9929 104.491 28.0665C105.33 27.1392 106.461 26.6755 107.884 26.6755C109.255 26.6755 110.358 27.1323 111.19 28.0469C111.987 28.9342 112.384 30.0797 112.384 31.4834ZM110.23 31.5509C110.23 30.6852 110.046 29.9427 109.673 29.3235C109.238 28.5742 108.616 28.2005 107.81 28.2005C106.975 28.2005 106.341 28.5752 105.906 29.3235C105.533 29.9437 105.349 30.6979 105.349 31.59C105.349 32.4558 105.533 33.1982 105.906 33.8165C106.355 34.5658 106.982 34.9395 107.791 34.9395C108.584 34.9395 109.206 34.558 109.655 33.7969C110.037 33.166 110.23 32.4157 110.23 31.5509Z" fill="#08605F"/>
<path d="M119.132 28.7014C118.926 28.6632 118.707 28.6437 118.477 28.6437C117.747 28.6437 117.182 28.9205 116.785 29.4751C116.439 29.9642 116.266 30.5825 116.266 31.3289V36.2542H114.191L114.211 29.8234C114.211 28.7415 114.184 27.7564 114.133 26.8682H115.941L116.017 28.6642H116.074C116.293 28.0469 116.639 27.55 117.112 27.1773C117.575 26.8418 118.074 26.6745 118.613 26.6745C118.805 26.6745 118.978 26.6882 119.132 26.7127V28.7014Z" fill="#08605F"/>
<path d="M128.415 31.1166C128.415 31.4903 128.391 31.8053 128.34 32.0626H122.112C122.136 32.9899 122.437 33.6991 123.015 34.1882C123.54 34.6255 124.219 34.8446 125.052 34.8446C125.974 34.8446 126.816 34.6969 127.572 34.4005L127.897 35.8483C127.013 36.2357 125.97 36.4284 124.765 36.4284C123.316 36.4284 122.179 35.9999 121.351 35.144C120.526 34.288 120.112 33.1386 120.112 31.6967C120.112 30.2812 120.496 29.1025 121.267 28.1624C122.073 27.1588 123.162 26.657 124.533 26.657C125.88 26.657 126.899 27.1588 127.592 28.1624C128.14 28.9597 128.415 29.9457 128.415 31.1166ZM126.436 30.5757C126.45 29.9575 126.314 29.4234 126.033 28.9724C125.674 28.3923 125.121 28.1028 124.378 28.1028C123.7 28.1028 123.148 28.3855 122.726 28.9528C122.38 29.4038 122.175 29.9447 122.112 30.5747H126.436V30.5757Z" fill="#08605F"/>
<path d="M57.4961 14.4819C57.4961 15.889 57.076 16.9483 56.237 17.6596C55.4599 18.316 54.3556 18.6448 52.9252 18.6448C52.2159 18.6448 51.609 18.6137 51.1008 18.5515V10.863C51.7637 10.7554 52.4777 10.7004 53.2488 10.7004C54.6114 10.7004 55.6384 10.9981 56.331 11.5934C57.1069 12.2665 57.4961 13.2289 57.4961 14.4819ZM56.1811 14.5165C56.1811 13.6043 55.9407 12.905 55.4599 12.4172C54.9791 11.9306 54.277 11.6867 53.3524 11.6867C52.9597 11.6867 52.6253 11.713 52.348 11.768V17.613C52.5015 17.6369 52.7823 17.6477 53.1905 17.6477C54.1449 17.6477 54.8816 17.3811 55.4004 16.8479C55.9193 16.3147 56.1811 15.5375 56.1811 14.5165Z" fill="#08605F"/>
<path d="M64.4686 15.7111C64.4686 16.5779 64.2222 17.288 63.7295 17.8452C63.2131 18.4178 62.5288 18.7036 61.6744 18.7036C60.8509 18.7036 60.1951 18.4298 59.706 17.8798C59.2181 17.3311 58.9742 16.6389 58.9742 15.8044C58.9742 14.9316 59.2253 14.2155 59.7298 13.6595C60.2344 13.1036 60.9127 12.8251 61.7672 12.8251C62.5907 12.8251 63.2523 13.0988 63.7533 13.6476C64.2294 14.1808 64.4686 14.8694 64.4686 15.7111ZM63.175 15.7518C63.175 15.2317 63.0631 14.7858 62.8406 14.4139C62.5788 13.9644 62.2063 13.7396 61.722 13.7396C61.221 13.7396 60.8401 13.9644 60.5783 14.4139C60.3546 14.7858 60.2439 15.2389 60.2439 15.7745C60.2439 16.2945 60.3558 16.7405 60.5783 17.1123C60.8485 17.5618 61.2245 17.7866 61.7101 17.7866C62.1861 17.7866 62.5597 17.5582 62.8287 17.1003C63.0596 16.7213 63.175 16.2718 63.175 15.7518Z" fill="#08605F"/>
<path d="M73.8178 12.9398L72.0625 18.5756H70.92L70.1929 16.1283C70.0085 15.5174 69.8585 14.91 69.7419 14.3075H69.7193C69.611 14.9268 69.4611 15.5329 69.2683 16.1283L68.496 18.5756H67.3404L65.6899 12.9398H66.9715L67.6058 15.619C67.7593 16.2526 67.8855 16.8564 67.9866 17.4278H68.0092C68.1021 16.9568 68.2556 16.3566 68.4721 15.6309L69.2683 12.941H70.2846L71.0474 15.5736C71.2318 16.2156 71.3818 16.8337 71.4972 17.429H71.5317C71.6162 16.8492 71.7435 16.2311 71.9125 15.5736L72.5932 12.941H73.8178V12.9398Z" fill="#08605F"/>
<path d="M80.2828 18.5756H79.0356V15.3476C79.0356 14.3529 78.6596 13.8556 77.9051 13.8556C77.535 13.8556 77.2363 13.9919 77.0042 14.2657C76.7746 14.5394 76.6579 14.8622 76.6579 15.2317V18.5744H75.4108V14.5502C75.4108 14.0552 75.3953 13.5184 75.3656 12.9374H76.4616L76.5199 13.8185H76.5544C76.6996 13.5447 76.9162 13.3188 77.2006 13.1383C77.5386 12.9278 77.917 12.8214 78.3311 12.8214C78.8547 12.8214 79.2903 12.9912 79.6366 13.3319C80.0674 13.7492 80.2828 14.3721 80.2828 15.1994V18.5756Z" fill="#08605F"/>
<path d="M83.7218 18.5755H82.4758V10.3538H83.7218V18.5755Z" fill="#08605F"/>
<path d="M91.0643 15.7111C91.0643 16.5779 90.8179 17.288 90.3253 17.8452C89.8088 18.4178 89.1233 18.7036 88.2701 18.7036C87.4454 18.7036 86.7897 18.4298 86.3018 17.8798C85.8138 17.3311 85.5699 16.6389 85.5699 15.8044C85.5699 14.9316 85.821 14.2155 86.3256 13.6595C86.8301 13.1036 87.5084 12.8251 88.3617 12.8251C89.1864 12.8251 89.8469 13.0988 90.3491 13.6476C90.8251 14.1808 91.0643 14.8694 91.0643 15.7111ZM89.7695 15.7518C89.7695 15.2317 89.6576 14.7858 89.4351 14.4139C89.1745 13.9644 88.8008 13.7396 88.3177 13.7396C87.8155 13.7396 87.4347 13.9644 87.174 14.4139C86.9503 14.7858 86.8397 15.2389 86.8397 15.7745C86.8397 16.2945 86.9515 16.7405 87.174 17.1123C87.4442 17.5618 87.8202 17.7866 88.3058 17.7866C88.7818 17.7866 89.1543 17.5582 89.4232 17.1003C89.6553 16.7213 89.7695 16.2718 89.7695 15.7518Z" fill="#08605F"/>
<path d="M97.1002 18.5756H95.9804L95.8875 17.9265H95.853C95.4698 18.4441 94.9236 18.7036 94.2144 18.7036C93.6848 18.7036 93.2564 18.5326 92.9339 18.1931C92.6411 17.8846 92.4948 17.5008 92.4948 17.0453C92.4948 16.3567 92.7804 15.8319 93.3552 15.4684C93.9287 15.105 94.7356 14.9268 95.7745 14.9352V14.83C95.7745 14.0876 95.3865 13.7169 94.6094 13.7169C94.0561 13.7169 93.5682 13.8568 93.1469 14.1342L92.8934 13.3116C93.4147 12.9877 94.0585 12.8251 94.8177 12.8251C96.2838 12.8251 97.0193 13.6022 97.0193 15.1564V17.2318C97.0193 17.7949 97.0466 18.2433 97.1002 18.5756ZM95.8054 16.6389V15.7697C94.4297 15.7458 93.7419 16.1248 93.7419 16.9055C93.7419 17.1996 93.8205 17.4195 93.9811 17.5666C94.1418 17.7136 94.3464 17.7866 94.5904 17.7866C94.8641 17.7866 95.12 17.6993 95.3532 17.5259C95.5876 17.3514 95.7316 17.1302 95.7852 16.8588C95.7983 16.7979 95.8054 16.7237 95.8054 16.6389Z" fill="#08605F"/>
<path d="M104.187 18.5755H103.08L103.022 17.6705H102.987C102.634 18.3591 102.032 18.7035 101.185 18.7035C100.509 18.7035 99.9466 18.4369 99.5003 17.9036C99.0541 17.3704 98.8315 16.6782 98.8315 15.8282C98.8315 14.916 99.0731 14.1771 99.5586 13.6128C100.029 13.0868 100.605 12.8238 101.29 12.8238C102.043 12.8238 102.571 13.0784 102.87 13.5889H102.894V10.3538H104.143V17.0572C104.143 17.6059 104.157 18.1117 104.187 18.5755ZM102.894 16.1988V15.2591C102.894 15.0965 102.882 14.965 102.86 14.8646C102.79 14.5633 102.638 14.3098 102.409 14.1054C102.177 13.9009 101.897 13.7981 101.575 13.7981C101.109 13.7981 100.745 13.9834 100.477 14.3553C100.212 14.7271 100.077 15.2017 100.077 15.7815C100.077 16.3387 100.205 16.7906 100.461 17.1385C100.731 17.5091 101.095 17.6944 101.551 17.6944C101.96 17.6944 102.287 17.5402 102.536 17.2305C102.776 16.9448 102.894 16.6005 102.894 16.1988Z" fill="#08605F"/>
<path d="M114.853 15.7111C114.853 16.5779 114.607 17.288 114.114 17.8452C113.598 18.4178 112.915 18.7036 112.059 18.7036C111.237 18.7036 110.581 18.4298 110.091 17.8798C109.603 17.3311 109.359 16.6389 109.359 15.8044C109.359 14.9316 109.61 14.2155 110.115 13.6595C110.619 13.1036 111.298 12.8251 112.153 12.8251C112.976 12.8251 113.638 13.0988 114.138 13.6476C114.614 14.1808 114.853 14.8694 114.853 15.7111ZM113.561 15.7518C113.561 15.2317 113.449 14.7858 113.227 14.4139C112.964 13.9644 112.592 13.7396 112.107 13.7396C111.607 13.7396 111.226 13.9644 110.963 14.4139C110.74 14.7858 110.629 15.2389 110.629 15.7745C110.629 16.2945 110.741 16.7405 110.963 17.1123C111.233 17.5618 111.609 17.7866 112.095 17.7866C112.571 17.7866 112.946 17.5582 113.215 17.1003C113.444 16.7213 113.561 16.2718 113.561 15.7518Z" fill="#08605F"/>
<path d="M121.559 18.5756H120.313V15.3476C120.313 14.3529 119.937 13.8556 119.181 13.8556C118.811 13.8556 118.512 13.9919 118.282 14.2657C118.051 14.5394 117.935 14.8622 117.935 15.2317V18.5744H116.687V14.5502C116.687 14.0552 116.673 13.5184 116.643 12.9374H117.738L117.796 13.8185H117.831C117.977 13.5447 118.194 13.3188 118.477 13.1383C118.816 12.9278 119.193 12.8214 119.608 12.8214C120.131 12.8214 120.566 12.9912 120.913 13.3319C121.345 13.7492 121.559 14.3721 121.559 15.1994V18.5756Z" fill="#08605F"/>
<path d="M129.952 13.8783H128.579V16.6161C128.579 17.3119 128.823 17.6598 129.306 17.6598C129.529 17.6598 129.715 17.6407 129.861 17.6012L129.894 18.5517C129.647 18.645 129.324 18.6916 128.925 18.6916C128.432 18.6916 128.049 18.5409 127.772 18.2397C127.493 17.9384 127.355 17.4315 127.355 16.7201V13.8783H126.535V12.9398H127.355V11.9069L128.577 11.5362V12.9386H129.951V13.8783H129.952Z" fill="#08605F"/>
<path d="M136.555 18.5755H135.306V15.3715C135.306 14.3612 134.93 13.8555 134.177 13.8555C133.599 13.8555 133.203 14.1484 132.987 14.7342C132.95 14.8574 132.929 15.008 132.929 15.185V18.5743H131.683V10.3538H132.929V13.7503H132.952C133.345 13.1322 133.908 12.8238 134.637 12.8238C135.154 12.8238 135.581 12.9935 135.92 13.3343C136.343 13.7587 136.555 14.3899 136.555 15.2244V18.5755Z" fill="#08605F"/>
<path d="M143.366 15.491C143.366 15.7158 143.349 15.9047 143.319 16.0589H139.579C139.596 16.616 139.774 17.0405 140.121 17.3346C140.437 17.5976 140.845 17.7291 141.345 17.7291C141.898 17.7291 142.403 17.6406 142.858 17.4625L143.053 18.3328C142.521 18.5648 141.895 18.6808 141.17 18.6808C140.301 18.6808 139.617 18.4237 139.122 17.9096C138.625 17.3955 138.378 16.7057 138.378 15.8401C138.378 14.9901 138.608 14.2823 139.071 13.718C139.554 13.1155 140.207 12.8142 141.032 12.8142C141.839 12.8142 142.452 13.1155 142.866 13.718C143.2 14.1963 143.366 14.788 143.366 15.491ZM142.176 15.167C142.185 14.7952 142.103 14.4748 141.934 14.2046C141.718 13.8567 141.388 13.6822 140.942 13.6822C140.535 13.6822 140.203 13.8519 139.949 14.1927C139.742 14.4641 139.62 14.788 139.579 15.167H142.176Z" fill="#08605F"/>
</g>
<defs>
<filter id="filter0_b" x="-18" y="-18" width="205" height="86.0988" filterUnits="userSpaceOnUse" color-interpolation-filters="sRGB">
<feFlood flood-opacity="0" result="BackgroundImageFix"/>
<feGaussianBlur in="BackgroundImage" stdDeviation="9"/>
<feComposite in2="SourceAlpha" operator="in" result="effect1_backgroundBlur"/>
<feBlend mode="normal" in="SourceGraphic" in2="effect1_backgroundBlur" result="shape"/>
</filter>
<clipPath id="clip0">
<rect width="169" height="50.0988" fill="white"/>
</clipPath>
</defs>
</svg>
