<svg width="565" height="508" viewBox="0 0 565 508" fill="none" xmlns="http://www.w3.org/2000/svg">
<path fill-rule="evenodd" clip-rule="evenodd" d="M256.645 2.3849C321.018 -3.23118 365.246 53.9619 417.574 85.7425C469.839 117.485 545.584 135.601 561.917 187.787C578.22 239.877 526.003 287.812 495.694 335.342C470.925 374.185 443.515 410.36 402.41 437.925C359.438 466.742 310.902 487.481 256.645 495.647C192.775 505.26 118.767 520.974 66.9055 488.421C15.0942 455.899 15.8274 391.927 6.18319 338.435C-1.94427 293.356 -5.0165 247.396 15.8551 205.267C35.6772 165.255 81.9293 142.604 118.442 111.839C164.255 73.2382 191.886 8.03461 256.645 2.3849Z" fill="#FFEDE9"/>
<g clip-path="url(#clip0)">
<path d="M470.499 445.555V400.828C470.499 400.828 487.958 432.537 470.499 445.555Z" fill="#F1F1F1"/>
<path d="M471.578 445.547L438.575 415.3C438.575 415.3 473.78 423.903 471.578 445.547Z" fill="#F1F1F1"/>
<path d="M355.176 197.352L180.046 299.542C179.433 299.898 178.703 299.998 178.017 299.818C177.331 299.638 176.744 299.194 176.385 298.583L63.7654 106.209C63.4081 105.597 63.3085 104.869 63.4885 104.184C63.6685 103.498 64.1134 102.913 64.7255 102.554L239.855 0.364573C240.468 0.00784769 241.198 -0.0915762 241.884 0.0881131C242.57 0.267802 243.157 0.711932 243.516 1.32307L356.136 193.697C356.493 194.309 356.593 195.038 356.413 195.723C356.233 196.408 355.788 196.994 355.176 197.352Z" fill="white"/>
<path d="M355.176 197.352L180.046 299.542C179.433 299.898 178.703 299.998 178.017 299.818C177.331 299.638 176.744 299.194 176.385 298.583L63.7654 106.209C63.4081 105.597 63.3085 104.869 63.4885 104.184C63.6685 103.498 64.1134 102.913 64.7255 102.554L239.855 0.364573C240.468 0.00784769 241.198 -0.0915762 241.884 0.0881131C242.57 0.267802 243.157 0.711932 243.516 1.32307L356.136 193.697C356.493 194.309 356.593 195.038 356.413 195.723C356.233 196.408 355.788 196.994 355.176 197.352ZM65.2657 103.477C64.8984 103.692 64.6314 104.043 64.5234 104.455C64.4154 104.866 64.4752 105.303 64.6896 105.67L177.309 298.044C177.525 298.411 177.877 298.677 178.289 298.785C178.7 298.893 179.138 298.833 179.506 298.619L354.636 196.429C355.003 196.214 355.27 195.863 355.378 195.452C355.486 195.041 355.426 194.604 355.212 194.236L242.592 1.8623C242.377 1.4956 242.025 1.22911 241.613 1.12129C241.201 1.01347 240.763 1.07314 240.395 1.2872L65.2657 103.477Z" fill="#3F3D56"/>
<path d="M177.84 122.635L134.404 147.98C133.791 148.337 133.061 148.436 132.375 148.256C131.689 148.077 131.102 147.633 130.743 147.021L105.356 103.657C104.999 103.045 104.899 102.316 105.079 101.631C105.259 100.946 105.704 100.36 106.316 100.002L149.752 74.6566C150.365 74.2998 151.095 74.2004 151.781 74.3801C152.467 74.5598 153.054 75.0039 153.413 75.6151L178.8 118.98C179.157 119.592 179.257 120.32 179.077 121.006C178.897 121.691 178.452 122.277 177.84 122.635V122.635ZM106.856 100.924C106.489 101.139 106.222 101.491 106.114 101.902C106.006 102.313 106.066 102.75 106.28 103.117L131.667 146.482C131.882 146.849 132.234 147.115 132.646 147.223C133.058 147.331 133.496 147.271 133.864 147.057L177.299 121.712C177.667 121.497 177.934 121.146 178.042 120.735C178.15 120.323 178.09 119.886 177.876 119.519L152.489 76.1543C152.274 75.7876 151.921 75.5211 151.51 75.4133C151.098 75.3055 150.66 75.3652 150.292 75.5792L106.856 100.924Z" fill="#F2F2F2"/>
<path d="M168.469 135.22L125.033 160.565C124.482 160.886 123.825 160.976 123.207 160.814C122.59 160.652 122.062 160.253 121.739 159.703L96.352 116.338C96.0304 115.787 95.9408 115.131 96.1028 114.515C96.2648 113.898 96.6652 113.371 97.2161 113.048L140.652 87.7032C141.204 87.3821 141.86 87.2926 142.478 87.4543C143.096 87.6161 143.624 88.0158 143.947 88.5658L169.333 131.931C169.655 132.481 169.745 133.137 169.583 133.754C169.421 134.37 169.02 134.898 168.469 135.22V135.22Z" fill="#08605F"/>
<path d="M273.309 102.515L137.457 181.786C136.905 182.108 136.248 182.198 135.63 182.036C135.012 181.875 134.484 181.474 134.162 180.924C133.84 180.373 133.75 179.717 133.912 179.1C134.074 178.484 134.474 177.956 135.026 177.634L270.879 98.3632C271.152 98.2038 271.453 98.0997 271.767 98.0569C272.08 98.014 272.399 98.0331 272.705 98.1132C273.011 98.1933 273.298 98.3328 273.55 98.5237C273.802 98.7146 274.014 98.9532 274.173 99.2258C274.333 99.4984 274.437 99.7998 274.48 100.113C274.523 100.425 274.504 100.744 274.424 101.049C274.343 101.355 274.204 101.641 274.012 101.893C273.821 102.144 273.582 102.356 273.309 102.515V102.515Z" fill="#CCCCCC"/>
<path d="M248.874 135.96L145.829 196.088C145.556 196.247 145.254 196.351 144.941 196.394C144.627 196.437 144.309 196.418 144.003 196.338C143.385 196.176 142.857 195.776 142.534 195.225C142.212 194.674 142.122 194.018 142.284 193.402C142.446 192.785 142.847 192.257 143.398 191.936L246.443 131.808C246.716 131.649 247.018 131.545 247.331 131.502C247.645 131.459 247.963 131.478 248.269 131.558C248.575 131.638 248.862 131.778 249.114 131.969C249.366 132.16 249.578 132.398 249.738 132.671C249.897 132.943 250.001 133.245 250.044 133.558C250.087 133.87 250.068 134.189 249.988 134.494C249.908 134.8 249.768 135.086 249.577 135.338C249.386 135.589 249.147 135.801 248.874 135.96V135.96Z" fill="#CCCCCC"/>
<path d="M242.059 50.1932L181.988 85.2452C181.437 85.567 180.78 85.6569 180.162 85.4951C179.544 85.3333 179.016 84.9331 178.693 84.3825C178.371 83.8319 178.281 83.1761 178.443 82.5592C178.605 81.9423 179.006 81.415 179.557 81.0932L239.628 46.0413C240.18 45.7195 240.837 45.6296 241.455 45.7914C241.761 45.8715 242.048 46.0109 242.3 46.2018C242.552 46.3927 242.763 46.6313 242.923 46.9039C243.083 47.1765 243.187 47.4779 243.23 47.7907C243.273 48.1036 243.254 48.4218 243.173 48.7272C243.093 49.0327 242.953 49.3194 242.762 49.5709C242.571 49.8224 242.332 50.0339 242.059 50.1932Z" fill="#CCCCCC"/>
<path d="M235.44 73.2422L190.36 99.5464C190.087 99.7057 189.785 99.8098 189.472 99.8527C189.159 99.8956 188.84 99.8764 188.534 99.7963C188.228 99.7162 187.941 99.5767 187.689 99.3858C187.437 99.1949 187.225 98.9563 187.066 98.6837C186.906 98.4111 186.802 98.1098 186.759 97.7969C186.716 97.4841 186.735 97.1659 186.815 96.8604C186.896 96.555 187.035 96.2683 187.227 96.0168C187.418 95.7652 187.657 95.5538 187.93 95.3944L233.009 69.0903C233.56 68.7685 234.217 68.6786 234.835 68.8404C235.453 69.0021 235.981 69.4023 236.304 69.9529C236.626 70.5035 236.716 71.1594 236.554 71.7762C236.392 72.3931 235.991 72.9204 235.44 73.2422Z" fill="#CCCCCC"/>
<path d="M290.054 131.117L154.201 210.389C153.65 210.711 152.993 210.8 152.375 210.639C151.757 210.477 151.229 210.077 150.907 209.526C150.584 208.975 150.494 208.32 150.656 207.703C150.818 207.086 151.219 206.559 151.771 206.237L287.623 126.965C288.175 126.644 288.832 126.554 289.449 126.716C290.067 126.877 290.596 127.278 290.918 127.828C291.24 128.379 291.33 129.035 291.168 129.651C291.006 130.268 290.605 130.796 290.054 131.117V131.117Z" fill="#CCCCCC"/>
<path d="M265.618 164.562L162.573 224.69C162.3 224.849 161.998 224.953 161.685 224.996C161.372 225.039 161.053 225.02 160.747 224.94C160.441 224.86 160.154 224.72 159.902 224.529C159.65 224.339 159.438 224.1 159.279 223.827C159.119 223.555 159.015 223.253 158.972 222.941C158.929 222.628 158.948 222.309 159.028 222.004C159.108 221.699 159.248 221.412 159.439 221.16C159.631 220.909 159.87 220.697 160.143 220.538L263.187 160.41C263.46 160.251 263.762 160.147 264.076 160.104C264.389 160.061 264.708 160.08 265.014 160.161C265.32 160.241 265.607 160.38 265.859 160.571C266.111 160.762 266.322 161.001 266.482 161.273C266.642 161.546 266.746 161.847 266.789 162.16C266.832 162.473 266.813 162.791 266.732 163.096C266.652 163.402 266.512 163.689 266.321 163.94C266.13 164.192 265.891 164.403 265.618 164.562V164.562Z" fill="#CCCCCC"/>
<path d="M306.798 159.72L170.946 238.991C170.673 239.15 170.371 239.255 170.057 239.297C169.744 239.34 169.425 239.321 169.119 239.241C168.813 239.161 168.526 239.021 168.274 238.831C168.022 238.64 167.81 238.401 167.651 238.128C167.491 237.856 167.387 237.555 167.344 237.242C167.301 236.929 167.32 236.611 167.401 236.305C167.481 236 167.621 235.713 167.812 235.461C168.003 235.21 168.242 234.998 168.515 234.839L304.368 155.568C304.641 155.409 304.942 155.304 305.256 155.262C305.569 155.219 305.888 155.238 306.194 155.318C306.5 155.398 306.787 155.538 307.039 155.728C307.291 155.919 307.503 156.158 307.662 156.431C307.822 156.703 307.926 157.004 307.969 157.317C308.012 157.63 307.993 157.948 307.913 158.254C307.832 158.559 307.693 158.846 307.501 159.097C307.31 159.349 307.071 159.561 306.798 159.72V159.72Z" fill="#CCCCCC"/>
<path d="M315.17 174.021L179.318 253.292C179.045 253.452 178.743 253.556 178.429 253.599C178.116 253.642 177.797 253.622 177.491 253.542C177.185 253.462 176.898 253.323 176.646 253.132C176.394 252.941 176.183 252.702 176.023 252.43C175.863 252.157 175.759 251.856 175.716 251.543C175.673 251.23 175.692 250.912 175.773 250.606C175.853 250.301 175.993 250.014 176.184 249.763C176.375 249.511 176.614 249.3 176.887 249.14L312.74 169.869C313.013 169.71 313.315 169.606 313.628 169.563C313.941 169.52 314.26 169.539 314.566 169.619C314.872 169.699 315.159 169.839 315.411 170.03C315.663 170.221 315.875 170.459 316.034 170.732C316.194 171.004 316.298 171.306 316.341 171.619C316.384 171.931 316.365 172.25 316.285 172.555C316.204 172.861 316.065 173.147 315.874 173.399C315.682 173.65 315.443 173.862 315.17 174.021V174.021Z" fill="#CCCCCC"/>
<path d="M271.238 229.694C273.126 227.475 274.825 225.103 276.317 222.602C277.656 220.346 278.97 217.934 279.265 215.288C279.416 214.161 279.298 213.015 278.921 211.942C278.545 210.869 277.92 209.9 277.098 209.114C276.303 208.382 275.296 207.922 274.222 207.801C273.148 207.679 272.063 207.901 271.124 208.436C270.174 208.98 269.389 209.771 268.852 210.725C268.316 211.678 268.047 212.759 268.075 213.852C268.152 215.056 268.501 216.227 269.094 217.277C269.688 218.328 270.512 219.231 271.504 219.92C275.519 222.824 281.79 222.673 286.07 220.462C290.891 217.973 293.381 211.459 289.594 207C288.806 206.073 287.496 207.109 287.693 208.11C287.943 209.461 288.701 210.666 289.811 211.478C290.921 212.291 292.3 212.649 293.666 212.481C295.032 212.312 296.282 211.629 297.161 210.571C298.04 209.514 298.481 208.161 298.394 206.789L296.691 207.783C298.779 208.706 301.073 209.064 303.343 208.821C305.612 208.578 307.778 207.742 309.622 206.398C310.534 205.736 311.348 204.951 312.042 204.063C312.875 202.978 314.275 202.276 315.408 201.494L323.577 195.859C324.779 195.03 323.636 193.055 322.425 193.891L315.027 198.994C313.794 199.845 312.553 200.685 311.328 201.546C310.452 202.162 309.913 203.156 309.116 203.887C307.607 205.242 305.743 206.141 303.741 206.479C301.74 206.817 299.684 206.58 297.812 205.796C297.638 205.702 297.442 205.655 297.244 205.658C297.047 205.662 296.853 205.716 296.682 205.816C296.511 205.916 296.369 206.058 296.268 206.228C296.168 206.398 296.114 206.592 296.11 206.789C296.2 207.608 295.963 208.428 295.449 209.073C294.936 209.717 294.189 210.133 293.37 210.23C292.551 210.327 291.727 210.097 291.077 209.59C290.427 209.083 290.004 208.34 289.901 207.524L287.999 208.633C290.442 211.509 288.816 215.921 286.001 217.851C282.853 220.009 278.202 220.384 274.654 219.042C273.783 218.743 272.984 218.268 272.306 217.647C271.628 217.026 271.085 216.272 270.712 215.432C270.366 214.673 270.267 213.825 270.43 213.007C270.592 212.189 271.007 211.443 271.617 210.873C272.145 210.352 272.856 210.056 273.599 210.048C274.341 210.04 275.058 210.321 275.597 210.83C276.185 211.429 276.616 212.163 276.853 212.967C277.089 213.772 277.124 214.622 276.954 215.442C276.588 217.727 275.323 219.833 274.147 221.784C272.803 224.008 271.284 226.12 269.603 228.101C268.661 229.215 270.286 230.819 271.238 229.694L271.238 229.694Z" fill="#08605F"/>
<path d="M291.514 283.906C291.711 284.108 291.892 284.326 292.054 284.556L317.352 283.938L320.303 278.554L329.024 281.939L324.727 291.977C324.38 292.788 323.779 293.465 323.014 293.906C322.249 294.346 321.361 294.527 320.484 294.422L291.903 290.975C291.228 291.827 290.31 292.454 289.27 292.772C288.231 293.091 287.118 293.086 286.081 292.757C285.045 292.429 284.132 291.794 283.466 290.936C282.8 290.077 282.411 289.037 282.351 287.953C282.292 286.868 282.564 285.792 283.133 284.866C283.701 283.94 284.538 283.209 285.533 282.769C286.528 282.33 287.633 282.204 288.701 282.407C289.77 282.61 290.751 283.133 291.514 283.906V283.906Z" fill="#FFB7B7"/>
<path d="M373.981 437.29H365.663L361.706 405.258L373.982 405.259L373.981 437.29Z" fill="#FFB7B7"/>
<path d="M376.102 445.34L349.281 445.339V445.001C349.282 442.236 350.382 439.586 352.339 437.631C354.297 435.677 356.952 434.579 359.721 434.578H359.722L376.103 434.579L376.102 445.34Z" fill="#2F2E41"/>
<path d="M298.45 437.106L290.801 433.843L299.766 402.834L311.055 407.65L298.45 437.106Z" fill="#FFB7B7"/>
<path d="M297.234 445.34L272.57 434.821L272.703 434.509C273.791 431.967 275.845 429.961 278.415 428.931C280.984 427.902 283.858 427.933 286.404 429.019L286.404 429.019L301.469 435.444L297.234 445.34Z" fill="#2F2E41"/>
<path d="M333.55 290.845L332.948 300.577L350.53 302.455L368.927 304.421L363.512 289.644L333.55 290.845Z" fill="#FFB7B7"/>
<path d="M332.395 300.702L325.564 253.163L337.403 249.289L340.88 244.528L357.801 245.528L360.286 251.084L369.309 255.34L367.922 281.05L368.933 302.557L332.395 300.702Z" fill="#2F2E41"/>
<path d="M328.096 287.962L316.053 283.152L316.105 282.938C316.156 282.722 321.282 261.34 321.962 257.904C322.671 254.324 325.261 253.334 325.371 253.294L325.452 253.264L330.217 254.712L332.31 271.131L328.096 287.962Z" fill="#2F2E41"/>
<path d="M304.646 431.476L288.616 428.193L314.236 357.613L323.005 333.539C323.005 333.539 328.566 314.237 331.079 306.767L332.595 296.744L368.491 300.711C368.491 300.711 378.517 315.411 375.471 339.37L376.848 429.424L360.819 430.245L347.392 339.421L323.827 389.21C323.827 389.21 316.399 410.457 311.085 415.062L304.646 431.476Z" fill="#2F2E41"/>
<path d="M354.096 304.054C354.378 304.047 354.66 304.062 354.94 304.1L371.687 285.16L369.739 279.338L378.154 275.255L382.606 285.226C382.965 286.031 383.053 286.932 382.857 287.791C382.661 288.651 382.19 289.424 381.516 289.994L359.551 308.575C359.719 309.648 359.555 310.746 359.082 311.724C358.609 312.702 357.849 313.513 356.903 314.049C355.957 314.585 354.87 314.821 353.787 314.725C352.703 314.629 351.675 314.207 350.838 313.513C350.001 312.819 349.395 311.888 349.102 310.842C348.808 309.797 348.84 308.687 349.194 307.66C349.548 306.633 350.206 305.738 351.082 305.094C351.957 304.449 353.009 304.087 354.096 304.054V304.054Z" fill="#FFB7B7"/>
<path d="M370.35 287.003L363.364 270.598L366.089 259.171L369.024 255.468C369.239 255.376 369.471 255.33 369.705 255.332C369.939 255.334 370.17 255.385 370.383 255.481C371.466 255.916 372.388 257.249 373.123 259.444L379.67 278.061L370.35 287.003Z" fill="#2F2E41"/>
<path d="M334.107 238.449V226.082C334.107 221.686 335.856 217.471 338.969 214.363C342.082 211.255 346.304 209.509 350.707 209.509C355.11 209.509 359.332 211.255 362.445 214.363C365.558 217.471 367.307 221.686 367.307 226.082V238.449C367.306 239.04 367.071 239.606 366.653 240.023C366.235 240.44 365.668 240.675 365.077 240.676H336.337C335.746 240.675 335.179 240.44 334.761 240.023C334.343 239.606 334.108 239.04 334.107 238.449V238.449Z" fill="#2F2E41"/>
<path d="M347.296 240.388C354.017 240.388 359.466 234.948 359.466 228.237C359.466 221.527 354.017 216.086 347.296 216.086C340.574 216.086 335.125 221.527 335.125 228.237C335.125 234.948 340.574 240.388 347.296 240.388Z" fill="#FFB7B7"/>
<path d="M330.18 227.071C330.184 223.595 331.568 220.263 334.03 217.805C336.492 215.348 339.83 213.965 343.311 213.961H345.789C349.27 213.965 352.608 215.348 355.07 217.805C357.531 220.263 358.916 223.595 358.92 227.071V227.318H353.684L351.898 222.326L351.541 227.318H348.835L347.934 224.799L347.754 227.318H330.18L330.18 227.071Z" fill="#2F2E41"/>
<path d="M346.098 242.066C345.852 241.734 345.705 241.339 345.675 240.927C345.644 240.515 345.73 240.103 345.923 239.738C348.549 234.752 352.225 225.539 347.346 219.858L346.995 219.45H361.161V240.683L348.292 242.95C348.162 242.973 348.03 242.984 347.898 242.984C347.546 242.984 347.2 242.901 346.887 242.742C346.574 242.582 346.304 242.351 346.098 242.066V242.066Z" fill="#2F2E41"/>
<path d="M180.852 430.293L188.369 432.976L202.309 405.304L191.214 401.346L180.852 430.293Z" fill="#9F616A"/>
<path d="M176.33 436.885L179.812 427.159L194.616 432.441C197.116 433.337 199.159 435.185 200.295 437.582C201.432 439.979 201.57 442.728 200.679 445.227L200.569 445.533L176.33 436.885Z" fill="#2F2E41"/>
<path d="M229.735 437.717L237.718 437.716L241.516 406.975L229.734 406.976L229.735 437.717Z" fill="#9F616A"/>
<path d="M227.698 435.114L243.42 435.114H243.42C244.736 435.114 246.039 435.373 247.254 435.875C248.47 436.378 249.574 437.115 250.505 438.043C251.435 438.972 252.173 440.075 252.677 441.288C253.18 442.502 253.439 443.803 253.439 445.116V445.441L227.699 445.442L227.698 435.114Z" fill="#2F2E41"/>
<path d="M211.542 241.319L215.013 234.47C215.013 234.47 227.947 237.705 229.123 245.189L211.542 241.319Z" fill="#F1F1F1"/>
<path d="M197.216 319.632L206.658 372.232L181.588 416.494L196.565 422.345L221.96 379.44L225.216 367.738L227.169 428.846L240.676 428.437L246.868 371.376L236.936 318.331L197.216 319.632Z" fill="#2F2E41"/>
<path d="M215.139 332.066C201.269 332.066 192.462 329.418 192.265 329.376L191.946 329.308L199.17 295.867L199.495 265.021C199.495 251.95 208.113 242.313 209.308 241.423C209.51 240.63 209.882 239.89 210.4 239.255C210.917 238.62 211.567 238.105 212.304 237.747C215.179 236.445 218.691 238.008 218.839 238.075L229.381 242.021L229.431 242.167C229.558 242.541 243.444 288.053 243.444 288.053C243.444 288.053 242.604 327.818 242.311 329.121C242.311 329.121 222.845 332.066 215.139 332.066Z" fill="#3F3D56"/>
<path d="M225.797 232.314C233.666 232.314 240.046 225.945 240.046 218.088C240.046 210.231 233.666 203.862 225.797 203.862C217.927 203.862 211.548 210.231 211.548 218.088C211.548 225.945 217.927 232.314 225.797 232.314Z" fill="#9F616A"/>
<path opacity="0.2" d="M209.909 267.544L234.838 302.268L238.519 286.052L209.909 267.544Z" fill="black"/>
<path d="M288.065 291.171C287.364 291.724 286.55 292.118 285.68 292.324C284.81 292.529 283.906 292.542 283.03 292.361C282.155 292.179 281.33 291.809 280.614 291.275C279.898 290.741 279.307 290.057 278.884 289.271L257.427 292.699L262.076 282.425L281.739 280.744C283.109 280.123 284.66 280.024 286.098 280.468C287.536 280.912 288.761 281.867 289.541 283.152C290.321 284.437 290.601 285.963 290.329 287.441C290.057 288.919 289.252 290.246 288.065 291.171H288.065Z" fill="#9F616A"/>
<path d="M263.181 281.841L270.891 281.086L273.027 291.823L263.326 291.994L263.181 281.841Z" fill="#F1F1F1"/>
<path d="M269.501 295.564L231.742 292.208L212.676 261.936L212.618 261.668C212.077 259.195 212.456 256.61 213.684 254.396C214.912 252.181 216.905 250.489 219.292 249.634C221.678 248.78 224.295 248.822 226.652 249.752C229.01 250.682 230.949 252.438 232.105 254.69L243.297 276.485L265.885 279.894L269.501 295.564Z" fill="#3F3D56"/>
<path d="M213.66 230.439L225.486 230.863C226.207 230.889 228.164 223.121 228.42 221.51C228.622 220.461 229.2 219.521 230.046 218.867C230.892 218.212 231.947 217.887 233.015 217.952C233.9 218.036 236.133 216.385 238.436 214.429C242.81 210.717 242.582 203.745 237.778 200.608C237.647 200.523 237.518 200.444 237.391 200.374C234.361 198.68 230.815 198.111 227.342 198.068C224.194 198.029 220.956 198.424 218.183 199.912C213.21 202.579 210.564 208.408 210.331 214.039C210.099 219.669 211.907 225.175 213.959 230.425" fill="#2F2E41"/>
<path d="M510.134 446H49.6193C49.4551 446 49.2975 445.935 49.1814 445.819C49.0652 445.703 49 445.546 49 445.382C49 445.218 49.0652 445.06 49.1814 444.945C49.2975 444.829 49.4551 444.763 49.6193 444.763H510.381C510.545 444.763 510.702 444.829 510.819 444.945C510.935 445.06 511 445.218 511 445.382C511 445.723 510.476 446 510.134 446Z" fill="#CBCBCB"/>
</g>
<defs>
<clipPath id="clip0">
<rect width="462" height="446" fill="white" transform="translate(49)"/>
</clipPath>
</defs>
</svg>
