<svg width="469" height="341" viewBox="0 0 469 341" fill="none" xmlns="http://www.w3.org/2000/svg">
<g clip-path="url(#clip0)">
<path opacity="0.1" d="M33.1444 275.321C46.0415 275.321 56.4966 271.604 56.4966 267.018C56.4966 262.433 46.0415 258.716 33.1444 258.716C20.2474 258.716 9.79224 262.433 9.79224 267.018C9.79224 271.604 20.2474 275.321 33.1444 275.321Z" fill="black"/>
<path opacity="0.1" d="M410.402 309.647C423.299 309.647 433.754 305.93 433.754 301.345C433.754 296.759 423.299 293.042 410.402 293.042C397.505 293.042 387.05 296.759 387.05 301.345C387.05 305.93 397.505 309.647 410.402 309.647Z" fill="black"/>
<path opacity="0.1" d="M276.536 9.56364C241 23.289 202.479 23.9272 166.698 11.0062C115.988 -7.3011 49.7608 -11.9869 25.2202 71.9061C-16.6632 215.236 69.0237 266.396 69.0237 266.396C69.0237 266.396 128.847 279.804 161.971 304.033C209.023 338.447 266.645 349.951 320.926 333.813C355.638 323.492 385.389 306.56 393.894 278.855C417.682 201.37 402.581 154.798 445.632 134.368C488.683 113.938 464.729 38.2545 434.112 36.5369C403.494 34.8192 331.362 52.3742 309.048 17.4563C301.092 5.05946 288.923 4.77405 276.536 9.56364Z" fill="#F5B83D"/>
<path d="M409.457 302.522C409.457 302.522 415.685 281.33 408.284 265.731C405.133 259.209 404.182 251.84 405.576 244.731C406.263 241.36 407.259 238.06 408.549 234.871" stroke="#535461" stroke-width="2" stroke-miterlimit="10"/>
<path d="M403.941 225.017C403.941 227.612 408.643 235.146 408.643 235.146C408.643 235.146 413.344 227.617 413.344 225.017C413.344 223.77 412.849 222.573 411.966 221.691C411.084 220.809 409.888 220.313 408.64 220.313C407.392 220.313 406.196 220.809 405.314 221.691C404.431 222.573 403.936 223.77 403.936 225.017H403.941Z" fill="#08605F"/>
<path d="M396.167 239.407C397.579 241.586 405.622 245.354 405.622 245.354C405.622 245.354 405.477 236.475 404.065 234.295C403.73 233.777 403.295 233.33 402.787 232.98C402.278 232.629 401.706 232.383 401.102 232.254C400.498 232.124 399.875 232.115 399.268 232.227C398.661 232.339 398.081 232.569 397.563 232.905C397.045 233.24 396.598 233.675 396.247 234.183C395.897 234.692 395.65 235.264 395.521 235.868C395.392 236.472 395.383 237.095 395.495 237.702C395.606 238.309 395.837 238.889 396.172 239.407H396.167Z" fill="#08605F"/>
<path d="M396.504 263.988C398.824 265.155 407.667 264.351 407.667 264.351C407.667 264.351 403.058 256.759 400.739 255.592C399.625 255.03 398.335 254.934 397.15 255.324C395.966 255.714 394.985 256.559 394.423 257.673C393.862 258.786 393.766 260.077 394.156 261.261C394.546 262.445 395.391 263.426 396.504 263.988V263.988Z" fill="#08605F"/>
<path d="M400.952 282.534C403.028 284.091 411.891 284.776 411.891 284.776C411.891 284.776 408.632 276.514 406.546 274.973C405.543 274.231 404.287 273.918 403.054 274.103C401.82 274.287 400.71 274.954 399.968 275.957C399.227 276.959 398.913 278.215 399.098 279.449C399.282 280.682 399.949 281.792 400.952 282.534V282.534Z" fill="#08605F"/>
<path d="M415.493 245.857C413.63 247.668 404.948 249.541 404.948 249.541C404.948 249.541 407.075 240.922 408.938 239.111C409.833 238.242 411.036 237.764 412.283 237.782C413.531 237.8 414.719 238.312 415.589 239.207C416.458 240.102 416.936 241.305 416.918 242.552C416.9 243.799 416.387 244.988 415.493 245.857V245.857Z" fill="#08605F"/>
<path d="M420.417 267.604C418.098 268.772 409.255 267.968 409.255 267.968C409.255 267.968 413.863 260.376 416.183 259.234C417.296 258.673 418.587 258.577 419.771 258.967C420.956 259.357 421.937 260.202 422.498 261.315C423.06 262.429 423.156 263.719 422.766 264.904C422.375 266.088 421.531 267.069 420.417 267.63V267.604Z" fill="#08605F"/>
<path d="M422.301 289.404C420.225 290.961 411.362 291.646 411.362 291.646C411.362 291.646 414.62 283.385 416.707 281.844C417.709 281.102 418.966 280.789 420.199 280.973C421.433 281.158 422.542 281.824 423.284 282.827C424.026 283.83 424.339 285.086 424.155 286.319C423.97 287.553 423.303 288.662 422.301 289.404V289.404Z" fill="#08605F"/>
<path d="M33.1548 267.081C33.1548 267.081 46.4863 221.873 30.6639 188.558C24.0215 174.584 21.842 158.902 24.8881 143.74C26.3566 136.548 28.4811 129.506 31.2347 122.703" stroke="#535461" stroke-width="2" stroke-miterlimit="10"/>
<path d="M21.3907 101.661C21.3907 107.203 31.4269 123.279 31.4269 123.279C31.4269 123.279 41.458 107.192 41.458 101.661C41.458 98.9991 40.4006 96.4464 38.5184 94.5644C36.6363 92.6823 34.0835 91.6249 31.4217 91.6249C28.76 91.6249 26.2072 92.6823 24.325 94.5644C22.4429 96.4464 21.3855 98.9991 21.3855 101.661H21.3907Z" fill="#08605F"/>
<path d="M4.80043 132.365C7.81546 137.035 24.9767 145.058 24.9767 145.058C24.9767 145.058 24.6653 126.107 21.6503 121.457C20.1754 119.291 17.9117 117.788 15.3431 117.269C12.7745 116.75 10.1047 117.256 7.90427 118.679C5.70382 120.102 4.14727 122.329 3.56728 124.885C2.9873 127.44 3.42987 130.121 4.80043 132.355V132.365Z" fill="#08605F"/>
<path d="M5.52154 184.837C10.4722 187.333 29.346 185.611 29.346 185.611C29.346 185.611 19.4861 169.41 14.5614 166.93C13.3845 166.336 12.1022 165.98 10.7877 165.882C9.47327 165.784 8.15237 165.946 6.90045 166.359C5.64853 166.771 4.49011 167.426 3.49134 168.286C2.49257 169.146 1.67301 170.195 1.07944 171.372C0.485875 172.549 0.129931 173.831 0.0319308 175.145C-0.066069 176.46 0.0957958 177.78 0.508283 179.032C1.34134 181.561 3.14466 183.654 5.52154 184.853V184.837Z" fill="#08605F"/>
<path d="M14.9918 224.415C19.4495 227.71 38.344 229.2 38.344 229.2C38.344 229.2 31.3903 211.557 26.9274 208.277C24.7872 206.694 22.106 206.027 19.4735 206.421C16.841 206.815 14.4729 208.239 12.8901 210.379C11.3074 212.519 10.6396 215.2 11.0338 217.832C11.4279 220.465 12.8517 222.833 14.9918 224.415V224.415Z" fill="#08605F"/>
<path d="M46.0504 146.111C42.0754 149.972 23.5493 153.973 23.5493 153.973C23.5493 153.973 28.0848 135.572 32.0599 131.711C33.9695 129.853 36.539 128.83 39.2031 128.866C41.8673 128.903 44.4078 129.996 46.2658 131.906C48.1238 133.815 49.1471 136.385 49.1106 139.049C49.0741 141.713 47.9808 144.253 46.0712 146.111H46.0504Z" fill="#08605F"/>
<path d="M56.559 192.559C51.6084 195.055 32.7346 193.332 32.7346 193.332C32.7346 193.332 42.5944 177.132 47.5191 174.651C48.6961 174.058 49.9784 173.702 51.2928 173.604C52.6073 173.506 53.9282 173.668 55.1801 174.08C56.4321 174.493 57.5905 175.148 58.5892 176.008C59.588 176.868 60.4076 177.916 61.0011 179.093C61.5947 180.27 61.9506 181.552 62.0486 182.867C62.1466 184.181 61.9848 185.502 61.5723 186.754C61.1598 188.006 60.5048 189.164 59.6446 190.163C58.7844 191.162 57.736 191.981 56.559 192.575V192.559Z" fill="#08605F"/>
<path d="M60.5807 239.085C56.123 242.38 37.2285 243.869 37.2285 243.869C37.2285 243.869 44.1823 226.226 48.6451 222.947C50.7853 221.364 53.4665 220.696 56.099 221.09C58.7315 221.485 61.0996 222.908 62.6824 225.048C64.2651 227.188 64.9329 229.87 64.5387 232.502C64.1446 235.134 62.7209 237.502 60.5807 239.085V239.085Z" fill="#08605F"/>
<path d="M196.755 155.566L167.835 151.819C166.662 151.669 165.759 151.222 165.79 150.833C165.842 150.444 166.828 150.262 168.027 150.434L196.885 154.611C197.679 154.725 198.281 155.026 198.244 155.291C198.208 155.54 197.544 155.669 196.755 155.566Z" fill="#08605F"/>
<path d="M196.937 156.059L167.928 153.059C166.75 152.94 165.749 153.158 165.712 153.547C165.676 153.936 166.615 154.346 167.788 154.45L196.848 157.045C197.648 157.117 198.301 156.962 198.327 156.697C198.348 156.417 197.731 156.142 196.937 156.059Z" fill="#08605F"/>
<path d="M240.455 177.879L269.37 174.132C270.543 173.982 271.446 173.536 271.415 173.147C271.363 172.757 270.377 172.576 269.178 172.747L240.32 176.924C239.526 177.038 238.924 177.339 238.961 177.604C238.997 177.853 239.661 177.983 240.455 177.879Z" fill="#08605F"/>
<path d="M240.268 178.372L269.277 175.373C270.455 175.253 271.456 175.471 271.492 175.86C271.529 176.25 270.589 176.66 269.417 176.763L240.356 179.358C239.557 179.431 238.903 179.275 238.877 179.01C238.856 178.73 239.474 178.455 240.268 178.372Z" fill="#08605F"/>
<path d="M144.799 208.936H137.747V310.052H144.799V208.936Z" fill="#40414D"/>
<path d="M298.83 208.936H291.778V310.052H298.83V208.936Z" fill="#40414D"/>
<path d="M135.053 200.706H298C301.028 200.706 303.931 201.909 306.072 204.05C308.213 206.191 309.416 209.095 309.416 212.122V213.638H123.637V212.122C123.637 209.095 124.84 206.191 126.981 204.05C129.122 201.909 132.025 200.706 135.053 200.706V200.706Z" fill="#DFE6F5"/>
<path opacity="0.1" d="M134.535 200.706H297.481C300.509 200.706 303.413 201.909 305.554 204.05C307.695 206.191 308.897 209.095 308.897 212.122V213.638H123.118V212.122C123.118 209.095 124.321 206.191 126.462 204.05C128.603 201.909 131.507 200.706 134.535 200.706V200.706Z" fill="black"/>
<path d="M135.053 198.35H298C301.028 198.35 303.931 199.553 306.072 201.694C308.213 203.835 309.416 206.738 309.416 209.766V211.281H123.637V209.766C123.637 206.738 124.84 203.835 126.981 201.694C129.122 199.553 132.025 198.35 135.053 198.35Z" fill="#DFE6F5"/>
<path d="M216.527 190.12C224.32 190.12 230.637 183.803 230.637 176.011C230.637 168.219 224.32 161.902 216.527 161.902C208.734 161.902 202.417 168.219 202.417 176.011C202.417 183.803 208.734 190.12 216.527 190.12Z" fill="#FFD77C" stroke="#FFAB50" stroke-miterlimit="10"/>
<path d="M216.527 187.193C222.703 187.193 227.71 182.187 227.71 176.011C227.71 169.835 222.703 164.828 216.527 164.828C210.35 164.828 205.344 169.835 205.344 176.011C205.344 182.187 210.35 187.193 216.527 187.193Z" fill="#FFD77C" stroke="#FFAB50" stroke-miterlimit="10"/>
<path d="M216.527 184.531C221.233 184.531 225.048 180.717 225.048 176.011C225.048 171.305 221.233 167.49 216.527 167.49C211.821 167.49 208.006 171.305 208.006 176.011C208.006 180.717 211.821 184.531 216.527 184.531Z" fill="#FFD77C" stroke="#FFAB50" stroke-miterlimit="10"/>
<path d="M216.527 180.8C219.172 180.8 221.317 178.656 221.317 176.011C221.317 173.366 219.172 171.221 216.527 171.221C213.882 171.221 211.737 173.366 211.737 176.011C211.737 178.656 213.882 180.8 216.527 180.8Z" fill="#FFD77C" stroke="#FFAB50" stroke-miterlimit="10"/>
<path d="M208.296 197.764C216.089 197.764 222.406 191.447 222.406 183.655C222.406 175.862 216.089 169.545 208.296 169.545C200.504 169.545 194.186 175.862 194.186 183.655C194.186 191.447 200.504 197.764 208.296 197.764Z" fill="#FFD77C" stroke="#FFAB50" stroke-miterlimit="10"/>
<path d="M208.296 194.837C214.473 194.837 219.479 189.83 219.479 183.654C219.479 177.478 214.473 172.472 208.296 172.472C202.12 172.472 197.113 177.478 197.113 183.654C197.113 189.83 202.12 194.837 208.296 194.837Z" fill="#FFD77C" stroke="#FFAB50" stroke-miterlimit="10"/>
<path d="M208.296 192.175C213.002 192.175 216.817 188.36 216.817 183.655C216.817 178.949 213.002 175.134 208.296 175.134C203.59 175.134 199.775 178.949 199.775 183.655C199.775 188.36 203.59 192.175 208.296 192.175Z" fill="#FFD77C" stroke="#FFAB50" stroke-miterlimit="10"/>
<path d="M208.296 188.444C210.941 188.444 213.086 186.3 213.086 183.655C213.086 181.009 210.941 178.865 208.296 178.865C205.651 178.865 203.506 181.009 203.506 183.655C203.506 186.3 205.651 188.444 208.296 188.444Z" fill="#FFD77C" stroke="#FFAB50" stroke-miterlimit="10"/>
<path d="M224.757 197.764C232.55 197.764 238.867 191.447 238.867 183.655C238.867 175.862 232.55 169.545 224.757 169.545C216.964 169.545 210.647 175.862 210.647 183.655C210.647 191.447 216.964 197.764 224.757 197.764Z" fill="#FFD77C" stroke="#FFAB50" stroke-miterlimit="10"/>
<path d="M224.757 194.837C230.933 194.837 235.94 189.83 235.94 183.654C235.94 177.478 230.933 172.472 224.757 172.472C218.581 172.472 213.574 177.478 213.574 183.654C213.574 189.83 218.581 194.837 224.757 194.837Z" fill="#FFD77C" stroke="#FFAB50" stroke-miterlimit="10"/>
<path d="M224.757 192.175C229.463 192.175 233.278 188.36 233.278 183.655C233.278 178.949 229.463 175.134 224.757 175.134C220.051 175.134 216.236 178.949 216.236 183.655C216.236 188.36 220.051 192.175 224.757 192.175Z" fill="#FFD77C" stroke="#FFAB50" stroke-miterlimit="10"/>
<path d="M224.757 188.444C227.402 188.444 229.547 186.3 229.547 183.655C229.547 181.009 227.402 178.865 224.757 178.865C222.112 178.865 219.967 181.009 219.967 183.655C219.967 186.3 222.112 188.444 224.757 188.444Z" fill="#FFD77C" stroke="#FFAB50" stroke-miterlimit="10"/>
<path d="M187.129 179.545H245.919V182.305C245.919 185.031 245.382 187.73 244.339 190.249C243.296 192.767 241.767 195.055 239.84 196.982C237.912 198.91 235.624 200.439 233.105 201.482C230.587 202.525 227.888 203.062 225.162 203.062H207.886C205.16 203.062 202.461 202.525 199.943 201.482C197.424 200.439 195.136 198.91 193.209 196.982C191.281 195.055 189.752 192.767 188.709 190.249C187.666 187.73 187.129 185.031 187.129 182.305V179.545Z" fill="#08605F"/>
<path opacity="0.1" d="M240.616 179.539C240.463 185.671 237.92 191.5 233.529 195.784C229.138 200.067 223.247 202.464 217.113 202.465H205.442C207.145 202.854 208.885 203.052 210.632 203.057H222.391C225.48 203.058 228.54 202.451 231.394 201.269C234.249 200.088 236.843 198.356 239.027 196.172C241.212 193.988 242.946 191.395 244.128 188.541C245.311 185.688 245.919 182.629 245.919 179.539H240.616Z" fill="black"/>
<path d="M295.307 293V285.948H142.448V293H295.307Z" fill="#40414D"/>
<path d="M85.137 261.321H78.9668V317.457H85.137V261.321Z" fill="#40414D"/>
<path d="M133.87 261.321H127.7V317.457H133.87V261.321Z" fill="#40414D"/>
<path d="M138.81 252.068C138.81 255.815 126.107 258.856 110.435 258.856C94.7631 258.856 82.677 255.82 82.677 252.068C82.677 248.316 94.7631 245.281 110.435 245.281C126.107 245.281 138.81 248.337 138.81 252.068Z" fill="#F6C6CD"/>
<path d="M74.0315 252.063H138.805V257.719C138.805 259.164 138.231 260.55 137.209 261.572C136.187 262.594 134.802 263.168 133.356 263.168H83.3724C80.895 263.168 78.5191 262.184 76.7674 260.432C75.0156 258.68 74.0315 256.305 74.0315 253.827V252.063Z" fill="#40414D"/>
<path d="M63.0321 187.157L64.3684 186.856C65.3082 186.644 66.2937 186.814 67.1083 187.328C67.9228 187.843 68.4995 188.659 68.7117 189.599L84.889 261.264L82.8642 261.721C81.1646 262.105 79.3822 261.798 77.909 260.867C76.4359 259.937 75.3928 258.459 75.0092 256.759L60.2784 191.503C60.1731 191.037 60.1609 190.554 60.2424 190.083C60.324 189.612 60.4976 189.162 60.7534 188.759C61.0092 188.355 61.3422 188.006 61.7332 187.731C62.1242 187.456 62.5656 187.261 63.0321 187.157Z" fill="#40414D"/>
<path d="M348.949 318.453H355.119V262.317H348.949V318.453Z" fill="#40414D"/>
<path d="M300.216 318.453H306.386V262.317H300.216V318.453Z" fill="#40414D"/>
<path d="M295.286 253.065C295.286 256.811 307.989 259.852 323.661 259.852C339.333 259.852 351.419 256.816 351.419 253.065C351.419 249.313 339.328 246.262 323.661 246.262C307.995 246.262 295.286 249.318 295.286 253.065Z" fill="#F6C6CD"/>
<path d="M350.713 264.169H300.729C299.284 264.169 297.898 263.595 296.876 262.574C295.855 261.552 295.28 260.166 295.28 258.721V253.065H360.054V254.829C360.054 257.306 359.07 259.682 357.318 261.434C355.567 263.185 353.191 264.169 350.713 264.169Z" fill="#40414D"/>
<path d="M351.231 262.717L349.206 262.26L365.386 190.585C365.598 189.645 366.175 188.828 366.989 188.314C367.804 187.799 368.789 187.63 369.729 187.842L371.066 188.143C372.005 188.355 372.822 188.932 373.337 189.747C373.851 190.561 374.021 191.547 373.809 192.486L359.076 257.753C358.693 259.451 357.651 260.927 356.18 261.858C354.71 262.789 352.93 263.098 351.231 262.717V262.717Z" fill="#40414D"/>
<path d="M353.428 231.213L355.249 230.637C355.249 230.637 352.136 209.839 352.167 191.2C352.167 190.681 352.167 190.125 352.167 189.591C352.203 188.429 352.245 187.277 352.302 186.151C352.374 184.708 352.39 183.333 352.379 181.999C352.551 164.05 345.478 156.469 345.478 156.469C345.478 156.469 337.175 144.627 332.198 142.323C331.767 140.974 331.274 139.241 330.838 137.227C330.999 137.118 331.155 137.009 331.305 136.895C333.361 135.371 335.327 133.73 337.195 131.981C339.749 129.589 342.198 126.672 342.063 123.383C342.077 123.062 342.067 122.741 342.032 122.423C341.56 118.453 337.434 115.464 335.768 111.702C334.367 108.542 334.787 105.023 333.563 101.816C332.338 98.6095 328.062 95.6257 324.834 97.3122C323.646 97.9349 322.93 99.035 321.939 99.8705C319.479 101.946 315.514 102.138 312.151 101.194C308.789 100.249 307.792 96.3989 303.091 96.3885C303.508 96.5285 303.907 96.7184 304.279 96.9542C303.886 96.888 303.489 96.8533 303.091 96.8504C304.047 97.153 304.895 97.7262 305.533 98.5007C306.17 99.2752 306.569 100.218 306.682 101.214C306.675 101.34 306.661 101.464 306.64 101.588C304.762 102.6 302.292 102.024 300.039 101.988C297.787 101.951 295.224 103.088 295.447 104.93C295.409 105.139 295.409 105.354 295.447 105.563C295.743 106.959 297.611 108.012 297.839 109.304C297.839 109.341 297.839 109.372 297.839 109.408C293.671 111.491 289.162 112.806 284.528 113.29C284.378 113.29 284.445 113.471 284.663 113.736H284.528C283.683 113.824 289.598 118.5 290.273 118.806C292.743 119.927 295.696 120.752 298.311 121.613L298.54 121.686C297.658 123.733 297.205 125.938 297.206 128.167C297.206 136.158 302.951 142.873 310.73 144.772C312.183 146.469 313.708 148.332 315.099 150.184H315C315 150.184 306.059 162.078 306.345 179.841C306.319 182.067 306.437 184.292 306.697 186.503C300.948 186.176 288.592 184.661 279.194 177.78C266.516 168.507 252.375 171.289 255.323 176.852C258.27 182.414 273.366 187.048 275.8 187.515C276.028 187.557 276.558 187.681 277.315 187.868C274.316 188.434 272.261 189.425 272.385 190.758C272.629 193.306 285.551 201.422 293.35 201.884C298.503 202.19 304.705 203.778 309.598 205.174C310.071 215.838 307.491 219.034 307.491 219.034C307.491 219.034 308.259 219.506 309.531 220.176L308.986 221.733C305.82 223.559 301.918 225.464 298.368 226.232C293.845 227.161 289.449 228.624 285.27 230.59L267.715 239.075C266.147 239.802 264.791 240.917 263.774 242.314C262.757 243.712 262.113 245.345 261.903 247.061C261.519 250.657 262.603 255.151 268.478 258.716C268.841 261.637 270.626 265.046 275.312 268.17C284.393 274.21 308.259 292.305 311.508 294.775C311.57 299.191 310.989 308.049 305.54 309.429C298.711 311.162 304.207 317.732 309.728 317.472C311.038 317.968 312.464 318.073 313.833 317.773C319.686 316.383 341.139 308.952 342.603 297.837C342.663 297.355 342.691 296.869 342.686 296.384C342.771 294.489 342.298 292.611 341.326 290.982C341.555 291.484 341.741 292.005 341.881 292.539C340.107 288.491 335.784 285.948 332.421 284.516C332.421 284.48 332.421 284.438 332.421 284.402C331.902 284.2 331.383 284.033 330.958 283.883C330.966 283.582 330.944 283.281 330.89 282.985L297.248 259.805C297.248 259.805 311.876 247.751 326.993 249.609C342.11 251.466 344.518 248.721 344.518 248.721C344.518 248.721 352.27 241.348 353.049 232.858L353.537 232.728C353.537 232.728 353.5 232.194 353.428 231.213Z" fill="url(#paint0_linear)"/>
<path d="M312.343 291.589C312.343 291.589 313.718 306.726 306.837 308.563C299.956 310.4 306.381 317.737 311.881 316.346C317.382 314.956 337.574 307.629 338.949 296.628C340.324 285.627 325.187 281.948 325.187 281.948L312.343 291.589Z" fill="#B8616E"/>
<path opacity="0.05" d="M312.343 291.589C312.343 291.589 313.718 306.726 306.837 308.563C299.956 310.4 306.381 317.737 311.881 316.346C317.382 314.956 337.574 307.629 338.949 296.628C340.324 285.627 325.187 281.948 325.187 281.948L312.343 291.589Z" fill="black"/>
<path d="M315.109 292.045C315.109 292.045 316.484 307.182 309.603 309.019C302.722 310.856 309.146 318.194 314.647 316.803C320.148 315.412 340.34 308.085 341.715 297.084C343.09 286.083 327.953 282.404 327.953 282.404L315.109 292.045Z" fill="#B8616E"/>
<path opacity="0.1" d="M329.328 282.871L316.495 292.507C316.495 292.507 316.552 293.161 316.588 294.204C321.435 292.876 331.996 289.347 332.156 283.826C331.234 283.451 330.289 283.132 329.328 282.871V282.871Z" fill="black"/>
<path d="M321.3 150.978H315.794V155.109H321.3V150.978Z" fill="#F8BDC5"/>
<path d="M316.028 217.721C316.028 217.721 307.284 224.592 300.102 226.221C295.831 227.145 291.692 228.594 287.777 230.533L271.259 238.929C269.759 239.684 268.472 240.803 267.517 242.184C266.561 243.564 265.967 245.163 265.789 246.833C265.317 251.503 267.196 257.647 278.405 261.3L313.729 290.66L324.741 281.486L287.123 252.592L316.028 234.7V217.721Z" fill="#758AC8"/>
<path opacity="0.1" d="M316.028 217.721C316.028 217.721 307.284 224.592 300.102 226.221C295.831 227.145 291.692 228.594 287.777 230.533L271.259 238.929C269.759 239.684 268.472 240.803 267.517 242.184C266.561 243.564 265.967 245.163 265.789 246.833C265.317 251.503 267.196 257.647 278.405 261.3L313.729 290.66L324.741 281.486L287.123 252.592L316.028 234.7V217.721Z" fill="black"/>
<path d="M310.978 186.991C310.978 186.991 294.004 187.448 282.074 178.273C270.143 169.099 256.843 171.849 259.593 177.355C262.344 182.86 276.568 187.448 278.861 187.904C281.155 188.361 314.186 197.541 314.186 197.541L310.978 186.991Z" fill="#F8BDC5"/>
<path opacity="0.05" d="M310.978 186.991C310.978 186.991 294.004 187.448 282.074 178.273C270.143 169.099 256.843 171.849 259.593 177.355C262.344 182.86 276.568 187.448 278.861 187.904C281.155 188.361 314.186 197.541 314.186 197.541L310.978 186.991Z" fill="black"/>
<path d="M312.815 213.601L307.31 230.118C307.31 230.118 276.345 249.157 273.817 251.679C271.856 253.641 269.23 261.315 278.405 267.734C287.58 274.153 312.81 294.344 312.81 294.344C312.81 294.344 332.078 290.193 330.703 282.409L299.048 259.473C299.048 259.473 312.81 247.538 327.034 249.38C341.258 251.223 343.552 248.462 343.552 248.462C343.552 248.462 354.564 237.44 350.89 226.906C347.216 216.372 312.815 213.601 312.815 213.601Z" fill="#758AC8"/>
<path d="M305.934 138.846C305.934 138.846 321.534 155.82 320.615 160.864C319.697 165.908 333.002 146.184 333.002 146.184C333.002 146.184 328.851 136.091 329.79 125.079L305.934 138.846Z" fill="#F8BDC5"/>
<path opacity="0.1" d="M319.546 154.414C320.61 153.29 321.731 152.221 322.904 151.212C325.251 149.287 327.404 147.137 329.333 144.793C332.545 140.642 344.471 158.555 344.471 158.555C344.471 158.555 351.808 166.81 350.895 186.54C349.982 206.269 352.042 232.645 352.042 232.645L349.266 233.418C346.927 234.199 344.439 234.424 341.998 234.078C339.558 233.731 337.231 232.821 335.202 231.421C331.539 228.888 326.899 226.231 323.371 225.993C316.49 225.536 310.293 221.634 310.293 221.634C310.293 221.634 313.277 214.525 308.69 191.583C304.103 168.642 315.794 152.338 315.794 152.338C315.794 152.338 316.718 157.33 319.546 154.414Z" fill="black"/>
<path d="M353.645 230.575L350.895 231.493L349.26 232.038C346.922 232.819 344.434 233.045 341.993 232.698C339.552 232.351 337.226 231.441 335.197 230.04C331.539 227.513 326.894 224.851 323.365 224.612C316.495 224.151 308.711 219.107 308.711 219.107C308.711 219.107 313.298 213.144 308.711 190.203C304.123 167.262 315.82 150.978 315.82 150.978C315.82 150.978 316.744 155.944 319.572 153.023C320.634 151.901 321.753 150.834 322.924 149.826C325.272 147.901 327.425 145.751 329.354 143.407C332.566 139.256 344.491 157.169 344.491 157.169C344.491 157.169 351.829 165.425 350.916 185.154C350.817 187.23 350.776 189.368 350.77 191.532C350.703 209.995 353.645 230.575 353.645 230.575Z" fill="#5E52AD"/>
<path opacity="0.1" d="M327.496 185.616L327.953 195.709C327.953 195.709 303.635 197.084 298.591 192.04C293.547 186.996 312.343 206.876 316.495 208.095C320.392 209.242 330.454 210.254 335.732 210.358C337.239 210.406 338.729 210.016 340.018 209.234C341.308 208.452 342.343 207.312 342.997 205.952C343.612 204.615 343.811 203.123 343.568 201.671C342.649 195.709 343.568 182.86 343.568 182.86L327.496 185.616Z" fill="black"/>
<path d="M327.496 184.697L327.953 194.79C327.953 194.79 303.636 196.165 298.592 191.122C293.548 186.078 275.297 187.193 275.655 191.122C275.883 193.644 288.042 201.671 295.374 202.133C302.707 202.595 312.343 205.957 316.495 207.177C320.392 208.324 330.454 209.336 335.732 209.439C337.24 209.488 338.729 209.097 340.019 208.315C341.308 207.533 342.343 206.393 342.997 205.034C343.612 203.696 343.811 202.205 343.568 200.753C342.649 194.79 343.568 181.942 343.568 181.942L327.496 184.697Z" fill="#F8BDC5"/>
<path opacity="0.1" d="M333.002 155.337C333.002 155.337 322.452 156.712 323.827 172.311C325.203 187.91 327.04 189.285 327.04 189.285C327.04 189.285 342.639 187.91 344.471 187.448C346.303 186.986 345.389 170.017 345.389 170.017C345.389 170.017 344.928 154.881 333.002 155.337Z" fill="black"/>
<path d="M333.002 154.881C333.002 154.881 322.452 156.256 323.827 171.854C325.203 187.453 327.04 188.828 327.04 188.828C327.04 188.828 342.639 187.453 344.471 186.991C346.303 186.529 345.389 169.561 345.389 169.561C345.389 169.561 344.928 154.414 333.002 154.881Z" fill="#5E52AD"/>
<path opacity="0.1" d="M329.1 134.923C328.378 131.291 329.857 130.17 330.247 125.52L306.375 139.282C306.375 139.282 309.11 142.261 312.219 146.085C313.608 146.436 315.036 146.611 316.469 146.604C322.722 146.63 326.142 139.915 329.1 134.923Z" fill="black"/>
<path d="M316.023 146.163C325.397 146.163 332.997 138.563 332.997 129.189C332.997 119.815 325.397 112.215 316.023 112.215C306.648 112.215 299.048 119.815 299.048 129.189C299.048 138.563 306.648 146.163 316.023 146.163Z" fill="#F8BDC5"/>
<path opacity="0.1" d="M320.304 124.036C317.709 125.687 317.673 129.418 319.344 132.002C321.015 134.586 323.895 136.293 326.666 137.902C327.47 138.369 328.358 138.851 329.261 138.748C329.955 138.612 330.598 138.287 331.118 137.808C333.058 136.295 334.908 134.672 336.661 132.946C339.183 130.466 341.606 127.409 341.212 123.948C340.765 120.02 336.884 117.062 335.317 113.342C333.998 110.228 334.393 106.736 333.241 103.555C332.089 100.374 328.051 97.4316 325.031 99.0973C323.916 99.7096 323.241 100.805 322.307 101.63C319.992 103.674 316.261 103.877 313.096 102.942C309.93 102.008 308.991 98.1944 304.575 98.184C306.77 98.9572 308.254 101.246 307.917 103.332C306.147 104.333 303.822 103.762 301.689 103.726C299.557 103.69 297.019 104.883 297.387 106.803C297.709 108.36 299.956 109.517 299.624 111.074C295.726 113.127 291.476 114.43 287.097 114.914C286.303 115.002 291.866 119.626 292.499 119.932C294.819 121.042 297.605 121.857 300.06 122.708C306.728 125.007 313.558 125.827 320.304 124.036Z" fill="black"/>
<path d="M320.304 123.575C317.709 125.225 317.673 128.956 319.344 131.54C321.015 134.124 323.895 135.831 326.666 137.44C327.47 137.907 328.358 138.39 329.261 138.286C329.955 138.151 330.598 137.825 331.118 137.347C333.058 135.834 334.908 134.21 336.661 132.484C339.183 130.004 341.606 126.948 341.212 123.486C340.765 119.558 336.884 116.6 335.317 112.88C333.998 109.766 334.393 106.274 333.241 103.093C332.089 99.9121 328.051 96.9698 325.031 98.6355C323.916 99.2478 323.241 100.343 322.307 101.168C319.992 103.212 316.261 103.415 313.096 102.481C309.93 101.547 308.991 97.7326 304.575 97.7222C306.77 98.4954 308.254 100.784 307.917 102.87C306.147 103.871 303.822 103.301 301.689 103.264C299.557 103.228 297.019 104.421 297.387 106.341C297.709 107.898 299.956 109.055 299.624 110.612C295.726 112.666 291.476 113.968 287.097 114.452C286.303 114.54 291.866 119.164 292.499 119.47C294.819 120.58 297.605 121.395 300.06 122.246C306.728 124.55 313.558 125.354 320.304 123.575Z" fill="#916168"/>
<path opacity="0.1" d="M340.517 290.312C341.253 292.011 341.51 293.88 341.259 295.714C339.883 306.726 319.697 314.063 314.191 315.433C311.29 316.16 308.13 314.463 306.806 312.423C307.657 314.821 311.321 317.182 314.653 316.352C320.159 314.976 340.345 307.634 341.72 296.633C342.021 294.451 341.598 292.231 340.517 290.312Z" fill="white"/>
<path d="M194.721 302.824C194.311 301.9 192.183 300.099 181.924 299.71C174.897 299.445 172.505 295.735 171.856 292.113C174.166 291.812 175.971 291.397 176.563 290.821C176.563 290.821 176.532 290.655 176.48 290.359L176.563 290.297C176.114 287.684 175.88 285.039 175.862 282.389C175.849 280.12 176.089 277.858 176.579 275.643C176.864 274.178 176.984 272.687 176.937 271.196C176.994 262.374 173.896 246.869 173.896 246.869L173.47 233.984C173.427 232.377 172.952 230.81 172.095 229.45C171.237 228.089 170.029 226.985 168.597 226.252C167.578 225.725 166.45 225.444 165.302 225.432C165.302 225.432 149.039 222.869 134.399 221.473C133.362 220.638 129.703 218.386 121.317 219.678L116.491 205.553C116.452 205.382 116.424 205.209 116.408 205.034C116.579 203.238 117.778 200.535 123.367 200.364L124.534 201.402C124.534 201.402 124.742 200.992 125.09 200.364C132.023 200.286 169.791 199.902 171.737 200.364C173.88 200.883 192.655 196.7 193.195 196.181C200.491 189.067 171.737 192.518 171.737 192.518C168.909 192.98 159.77 192.429 150.409 191.667C155.043 184.718 159.402 161.134 159.402 161.134C159.402 161.134 176.008 152.764 171.202 148.057C166.397 143.35 151.893 158.518 151.893 158.518C151.893 158.518 145.992 175.783 143.31 181.013C142.272 183.089 140.928 183.515 139.729 183.276C140.274 182.84 140.627 182.58 140.627 182.58C140.627 182.58 128.826 173.162 127.752 169.504C127.552 168.904 127.287 168.329 126.963 167.786C126.397 164.47 125.406 161.206 122.988 159.032C122.582 158.596 122.133 158.201 121.649 157.854C120.995 157.387 120.253 156.982 119.636 156.474C119.983 154.876 120.388 153.215 120.808 151.606C129.568 150.569 136.377 143.304 136.377 134.482C136.375 133.152 136.217 131.826 135.904 130.533C137.213 130.619 138.523 130.366 139.705 129.796C140.887 129.227 141.902 128.362 142.651 127.285C144.42 124.649 144.363 121.058 142.879 118.276C142.265 117.147 141.461 116.133 140.502 115.277C138.973 113.737 137.108 112.572 135.053 111.873C133.273 111.256 131.307 110.887 129.895 109.678C129.264 108.853 128.69 107.986 128.177 107.083C127.585 106.197 126.888 105.385 126.102 104.665C123.507 101.993 119.843 100.348 116.112 99.6215C111.566 98.7341 106.87 99.0507 102.246 99.3672C100.518 99.4866 98.4889 99.7927 97.7105 101.298C97.1241 102.429 97.5081 103.783 97.4303 105.044C97.1864 109.055 92.599 111.271 88.6084 112.242C84.6177 113.212 79.8591 114.053 77.9338 117.571C76.185 120.747 77.4149 124.597 77.9753 128.162C78.9088 134.421 77.5188 140.806 74.0677 146.111C72.3137 148.794 70.0512 151.181 68.6656 154.061C67.1306 157.271 66.7742 160.92 67.6589 164.367C67.9183 165.373 68.292 166.401 68.1052 167.428C67.8928 168.275 67.4759 169.058 66.8908 169.706C64.5046 172.653 61.5348 175.074 58.1681 176.818C54.8014 178.562 51.1104 179.591 47.3269 179.841C47.6446 180.894 48.2655 181.831 49.1121 182.534C50.1875 183.597 51.4417 184.463 52.8173 185.092C56.4411 186.909 60.2517 188.327 64.182 189.321C66.8286 189.991 69.5945 190.468 72.2878 190.011C74.9811 189.555 77.6069 188.014 78.7122 185.575C79.3557 184.163 79.4491 182.565 80.02 181.128C81.1564 178.253 83.9743 176.39 85.8788 173.925C85.2374 180.277 84.9343 186.658 84.9706 193.042C84.9706 195.04 84.9706 196.84 84.9706 198.511C84.9706 205.719 84.4517 210.69 79.9836 219.693C79.4511 220.64 79.2178 221.725 79.3142 222.807C79.2171 223.391 79.2736 223.991 79.4783 224.547C79.6831 225.103 80.0289 225.596 80.4818 225.977C80.1704 227.773 80.0193 229.593 80.0303 231.416C79.9681 237.975 82.1839 246.781 93.9327 249.012L114.851 247.974C114.851 247.974 144.353 242.219 152.396 246.417C153.06 246.559 153.655 246.923 154.083 247.45C154.511 247.977 154.745 248.634 154.747 249.313C154.722 249.749 154.654 250.182 154.545 250.605C154.32 251.965 154.235 253.343 154.29 254.72C154.254 263.542 156.153 283.561 156.153 283.561V292.051C154.814 294.064 153.164 297.043 153.377 299.238C153.377 299.285 153.377 299.336 153.377 299.383C153.377 299.43 153.377 299.513 153.408 299.575C153.439 299.637 153.408 299.689 153.444 299.746C153.481 299.803 153.476 299.855 153.491 299.912C153.507 299.97 153.533 300.037 153.559 300.094C153.585 300.151 153.595 300.187 153.616 300.234C153.636 300.281 153.683 300.369 153.719 300.431L153.782 300.54C153.844 300.64 153.913 300.736 153.989 300.826C156.672 303.939 170.076 309.964 174.373 309.72C178.935 309.46 194.217 310.239 194.757 303.441C194.825 303.238 194.812 303.017 194.721 302.824V302.824Z" fill="url(#paint1_linear)"/>
<path d="M156.589 289.684C156.589 289.684 150.362 297.468 152.957 300.582C155.551 303.695 168.525 309.647 172.676 309.403C177.087 309.144 191.877 309.922 192.396 303.176C192.396 303.176 193.434 300.063 179.941 299.544C166.449 299.025 170.601 285.014 170.601 285.014L156.589 289.684Z" fill="#594C76"/>
<path opacity="0.1" d="M82.3811 224.301C82.3811 224.301 76.1539 245.577 94.8356 249.209L115.074 248.171C115.074 248.171 143.616 242.463 151.4 246.615C151.4 246.615 154.513 247.134 153.476 251.285C152.438 255.436 155.032 283.458 155.032 283.458V292.798C155.032 292.798 172.676 292.798 174.752 290.722C174.752 290.722 173.195 282.42 174.752 275.674C176.309 268.928 172.157 247.652 172.157 247.652L171.747 234.846C171.717 233.263 171.265 231.717 170.439 230.368C169.613 229.018 168.441 227.912 167.046 227.166C166.064 226.645 164.971 226.367 163.859 226.356C163.859 226.356 128.572 220.648 116.117 221.686C103.663 222.724 82.3811 224.301 82.3811 224.301Z" fill="black"/>
<path d="M82.3811 223.782C82.3811 223.782 76.1539 245.058 94.8356 248.69L115.074 247.652C115.074 247.652 143.616 241.944 151.4 246.096C151.4 246.096 154.513 246.615 153.476 250.766C152.438 254.917 155.032 282.939 155.032 282.939V292.279C155.032 292.279 172.676 292.279 174.752 290.204C174.752 290.204 173.195 281.901 174.752 275.155C176.309 268.409 172.157 247.134 172.157 247.134L171.747 234.327C171.717 232.744 171.265 231.199 170.439 229.849C169.613 228.499 168.441 227.394 167.046 226.647C166.064 226.126 164.971 225.849 163.859 225.837C163.859 225.837 128.572 220.129 116.117 221.167C103.663 222.205 82.3811 223.782 82.3811 223.782Z" fill="#8B9CD1"/>
<path d="M135.832 181.75C135.832 181.75 139.983 186.939 142.578 181.75C145.173 176.561 150.881 159.437 150.881 159.437C150.881 159.437 164.892 144.388 169.563 149.058C174.233 153.729 158.146 162.031 158.146 162.031C158.146 162.031 152.438 193.685 147.249 194.204C142.059 194.723 134.275 194.204 134.275 194.204L131.68 188.496L135.832 181.75Z" fill="#F8BDC5"/>
<path opacity="0.05" d="M135.832 181.75C135.832 181.75 139.983 186.939 142.578 181.75C145.173 176.561 150.881 159.437 150.881 159.437C150.881 159.437 164.892 144.388 169.563 149.058C174.233 153.729 158.146 162.031 158.146 162.031C158.146 162.031 152.438 193.685 147.249 194.204C142.059 194.723 134.275 194.204 134.275 194.204L131.68 188.496L135.832 181.75Z" fill="black"/>
<path d="M117.15 155.804C117.15 155.804 126.491 166.702 127.529 170.334C128.567 173.966 139.983 183.307 139.983 183.307C139.983 183.307 131.68 189.534 133.237 192.647C134.794 195.761 122.34 182.269 122.34 182.269L107.809 160.993L117.15 155.804Z" fill="#EB6475"/>
<path opacity="0.1" d="M117.15 155.804C117.15 155.804 126.491 166.702 127.529 170.334C128.567 173.966 139.983 183.307 139.983 183.307C139.983 183.307 131.68 189.534 133.237 192.647C134.794 195.761 122.34 182.269 122.34 182.269L107.809 160.993L117.15 155.804Z" fill="black"/>
<path d="M123.377 143.351C123.377 143.351 118.707 158.399 118.707 164.107C118.707 169.815 98.9872 162.55 99.5062 159.437C100.025 156.323 110.923 144.907 111.442 140.237C111.961 135.567 123.377 143.351 123.377 143.351Z" fill="#F8BDC5"/>
<path opacity="0.1" d="M107.809 153.729C107.809 153.729 89.6463 149.058 87.0516 175.523C84.4569 201.988 89.1274 205.101 81.3433 221.188C73.5592 237.274 134.275 223.263 134.275 223.263C134.275 223.263 131.161 219.631 121.301 221.188L116.631 207.177C116.631 207.177 115.074 200.95 123.896 200.95C132.718 200.95 128.567 182.788 128.567 182.788C128.567 182.788 123.896 167.22 121.301 165.664C118.707 164.107 114.036 154.766 107.809 153.729Z" fill="black"/>
<path d="M107.809 152.691C107.809 152.691 89.6463 148.021 87.0516 174.485C84.4569 200.95 89.1274 204.063 81.3433 220.15C73.5592 236.236 134.275 222.225 134.275 222.225C134.275 222.225 131.161 218.593 121.301 220.15L116.631 206.139C116.631 206.139 115.074 199.912 123.896 199.912C132.718 199.912 128.567 181.75 128.567 181.75C128.567 181.75 123.896 166.183 121.301 164.626C118.707 163.069 114.036 153.729 107.809 152.691Z" fill="#EB6475"/>
<path d="M125.972 190.053C125.972 190.053 163.855 194.204 170.082 193.166C170.082 193.166 197.897 189.741 190.839 196.799C190.32 197.318 172.158 201.469 170.082 200.95C168.006 200.431 123.896 200.95 123.896 200.95L123.377 195.761L125.972 190.053Z" fill="#F8BDC5"/>
<path opacity="0.1" d="M96.9115 177.08L124.415 201.988C124.415 201.988 129.605 191.61 131.161 191.61C132.718 191.61 112.48 160.994 112.48 160.994C112.48 160.994 107.29 154.767 104.177 157.88C101.063 160.994 91.7221 158.918 96.9115 177.08Z" fill="black"/>
<path d="M96.3925 176.042L123.896 200.95C123.896 200.95 129.086 190.572 130.642 190.572C132.199 190.572 111.961 159.956 111.961 159.956C111.961 159.956 106.771 153.729 103.658 156.842C100.544 159.956 91.2031 157.88 96.3925 176.042Z" fill="#EB6475"/>
<path d="M118.707 152.691C128.165 152.691 135.832 145.024 135.832 135.567C135.832 126.109 128.165 118.442 118.707 118.442C109.249 118.442 101.582 126.109 101.582 135.567C101.582 145.024 109.249 152.691 118.707 152.691Z" fill="#F8BDC5"/>
<path opacity="0.1" d="M133.704 131.265C136.61 132.412 140.17 131.037 141.883 128.426C143.595 125.816 143.543 122.262 142.101 119.491C140.658 116.72 137.991 114.706 135.048 113.658C133.263 113.025 131.276 112.662 129.906 111.354C129.039 110.529 128.525 109.413 127.877 108.407C125.453 104.629 121.13 102.398 116.735 101.521C112.34 100.644 107.794 100.955 103.32 101.266C101.649 101.386 99.6879 101.687 98.9302 103.181C98.3646 104.302 98.733 105.646 98.6604 106.897C98.4269 110.877 93.9899 113.082 90.1135 114.037C86.237 114.992 81.743 115.889 79.8541 119.397C78.1624 122.547 79.3715 126.366 79.8956 129.905C80.7919 136.087 79.4522 142.386 76.1177 147.668C74.4208 150.33 72.2361 152.696 70.892 155.555C69.4053 158.75 69.0609 162.359 69.9164 165.778C70.1707 166.779 70.5288 167.796 70.3523 168.814C70.149 169.649 69.7466 170.424 69.1796 171.071C66.9053 173.981 64.0457 176.381 60.7858 178.117C57.5258 179.853 53.9379 180.885 50.2539 181.148C50.8455 183.374 52.9991 184.781 55.0489 185.818C58.5466 187.617 62.2328 189.024 66.04 190.011C68.5983 190.675 71.2761 191.148 73.8811 190.696C76.4862 190.245 79.0238 188.714 80.1084 186.296C80.7311 184.895 80.8245 183.312 81.3746 181.88C82.6148 178.668 85.9205 176.727 87.6952 173.774C89.3922 170.951 90.0512 170.619 90.4819 167.361C90.9126 164.102 91.8623 160.584 94.54 158.669C97.3423 156.661 101.286 157.045 104.4 158.586C107.513 160.127 109.439 159.525 112.039 161.787C116.599 165.749 121.704 169.038 127.197 171.553C126.678 167.028 125.842 161.979 122.168 159.286C121.13 158.513 119.817 157.922 119.267 156.738C118.39 154.855 119.89 152.556 119.21 150.589C118.53 148.623 115.946 147.896 114.799 146.111C113.824 144.596 114.088 142.536 115.002 140.979C115.915 139.422 117.358 138.27 118.795 137.18C120.072 136.215 121.366 135.273 122.677 134.352C123.862 133.601 124.925 132.673 125.832 131.602C126.351 130.891 126.693 129.335 127.415 128.831C129.231 127.575 132.023 130.606 133.704 131.265Z" fill="black"/>
<path d="M133.185 130.746C136.091 131.893 139.651 130.518 141.364 127.907C143.076 125.297 143.024 121.743 141.582 118.972C140.139 116.201 137.472 114.187 134.529 113.139C132.744 112.506 130.757 112.143 129.387 110.835C128.52 110.01 128.006 108.894 127.358 107.888C124.934 104.11 120.612 101.879 116.216 101.002C111.821 100.125 107.275 100.436 102.802 100.747C101.131 100.867 99.1691 101.168 98.4114 102.662C97.8458 103.783 98.2142 105.127 98.1416 106.378C97.9081 110.358 93.4712 112.563 89.5947 113.518C85.7182 114.473 81.2242 115.37 79.3353 118.878C77.6436 122.028 78.8527 125.847 79.3768 129.386C80.2731 135.568 78.9334 141.867 75.599 147.149C73.902 149.811 71.7173 152.177 70.3732 155.036C68.8865 158.232 68.5421 161.84 69.3976 165.259C69.6519 166.261 70.01 167.278 69.8335 168.295C69.6302 169.131 69.2278 169.905 68.6608 170.552C66.3865 173.462 63.5269 175.862 60.267 177.598C57.007 179.334 53.4191 180.367 49.7351 180.629C50.3267 182.855 52.4803 184.262 54.5301 185.3C58.0278 187.098 61.714 188.505 65.5212 189.492C68.0795 190.157 70.7573 190.629 73.3623 190.177C75.9674 189.726 78.505 188.195 79.5896 185.777C80.2123 184.376 80.3057 182.793 80.8558 181.361C82.096 178.149 85.4017 176.208 87.1764 173.255C88.8734 170.433 89.5324 170.101 89.9631 166.842C90.3939 163.583 91.3435 160.065 94.0212 158.15C96.8235 156.142 100.767 156.526 103.881 158.067C106.995 159.608 108.92 159.006 111.52 161.269C116.081 165.23 121.185 168.519 126.678 171.035C126.159 166.51 125.324 161.461 121.649 158.767C120.612 157.994 119.299 157.403 118.749 156.22C117.872 154.336 119.371 152.037 118.691 150.07C118.012 148.104 115.427 147.377 114.281 145.592C113.305 144.077 113.57 142.017 114.483 140.46C115.396 138.903 116.839 137.751 118.276 136.662C119.553 135.696 120.847 134.754 122.158 133.833C123.343 133.082 124.407 132.154 125.313 131.083C125.832 130.372 126.175 128.816 126.896 128.312C128.712 127.056 131.504 130.087 133.185 130.746Z" fill="#916168"/>
<g opacity="0.1">
<path opacity="0.1" d="M170.009 289.103C170.048 287.722 170.247 286.35 170.601 285.014L170.341 285.102C170.082 286.42 169.971 287.761 170.009 289.103V289.103Z" fill="white"/>
<path opacity="0.1" d="M172.676 308.365C168.525 308.609 155.551 302.657 152.957 299.544C152.616 299.122 152.407 298.61 152.355 298.07C152.279 298.508 152.293 298.956 152.396 299.388C152.5 299.82 152.691 300.226 152.957 300.582C155.551 303.695 168.525 309.647 172.676 309.403C177.087 309.144 191.877 309.922 192.396 303.176C192.435 302.99 192.409 302.796 192.323 302.626C191.135 308.843 176.978 308.111 172.676 308.365Z" fill="white"/>
</g>
<path d="M193.693 153.469H193.174V174.745H193.693V153.469Z" fill="#FFD77C" stroke="#FFAB50" stroke-width="0.25" stroke-miterlimit="10"/>
<path d="M194.212 153.469H193.693V174.745H194.212V153.469Z" fill="#FFD77C" stroke="#FFAB50" stroke-width="0.25" stroke-miterlimit="10"/>
<path d="M194.731 153.469H194.212V174.745H194.731V153.469Z" fill="#FFD77C" stroke="#FFAB50" stroke-width="0.25" stroke-miterlimit="10"/>
<path d="M195.25 153.469H194.731V174.745H195.25V153.469Z" fill="#FFD77C" stroke="#FFAB50" stroke-width="0.25" stroke-miterlimit="10"/>
<path d="M195.769 153.469H195.25V174.745H195.769V153.469Z" fill="#FFD77C" stroke="#FFAB50" stroke-width="0.25" stroke-miterlimit="10"/>
<path d="M196.288 153.469H195.769V174.745H196.288V153.469Z" fill="#FFD77C" stroke="#FFAB50" stroke-width="0.25" stroke-miterlimit="10"/>
<path d="M196.807 153.469H196.288V174.745H196.807V153.469Z" fill="#FFD77C" stroke="#FFAB50" stroke-width="0.25" stroke-miterlimit="10"/>
</g>
<defs>
<linearGradient id="paint0_linear" x1="305.078" y1="317.965" x2="305.078" y2="96.3885" gradientUnits="userSpaceOnUse">
<stop stop-color="#808080" stop-opacity="0.25"/>
<stop offset="0.54" stop-color="#808080" stop-opacity="0.12"/>
<stop offset="1" stop-color="#808080" stop-opacity="0.1"/>
</linearGradient>
<linearGradient id="paint1_linear" x1="56296.6" y1="151408" x2="56296.6" y2="65870.5" gradientUnits="userSpaceOnUse">
<stop stop-color="#808080" stop-opacity="0.25"/>
<stop offset="0.54" stop-color="#808080" stop-opacity="0.12"/>
<stop offset="1" stop-color="#808080" stop-opacity="0.1"/>
</linearGradient>
<clipPath id="clip0">
<rect width="469" height="341" fill="white"/>
</clipPath>
</defs>
</svg>
