<svg width="169" height="51" viewBox="0 0 169 51" fill="none" xmlns="http://www.w3.org/2000/svg">
<g clip-path="url(#clip0)">
<g filter="url(#filter0_b)">
<path d="M0 6.67984C0 2.99067 2.99067 0 6.67984 0H162.32C166.009 0 169 2.99067 169 6.67984V43.419C169 47.1081 166.009 50.0988 162.32 50.0988H6.67984C2.99067 50.0988 0 47.1081 0 43.419V6.67984Z" fill="white" fill-opacity="0.5"/>
</g>
<path fill-rule="evenodd" clip-rule="evenodd" d="M0 43.419V6.67984C0 2.99067 2.99067 0 6.67984 0H162.32C166.009 0 169 2.99067 169 6.67984V43.419C169 47.1081 166.009 50.0988 162.32 50.0988H6.67984C2.99067 50.0988 0 47.1081 0 43.419ZM1.00198 43.419V6.67984C1.00198 3.54404 3.54404 1.00198 6.67984 1.00198H162.32C165.456 1.00198 167.998 3.54404 167.998 6.67984V43.419C167.998 46.5548 165.456 49.0968 162.32 49.0968H6.67984C3.54404 49.0968 1.00198 46.5548 1.00198 43.419Z" fill="#08605F"/>
<path d="M35.1898 30.6685L30.3971 25.829L14.382 42.0927C14.575 42.0341 14.7798 41.9451 14.9986 41.8238C15.1624 41.7333 15.5609 41.5136 16.1467 41.1905L16.1815 41.1713C19.4778 39.3533 28.5281 34.3619 35.1898 30.6685Z" fill="#08605F"/>
<path d="M36.1001 30.1638C36.7166 29.8219 37.3075 29.4938 37.8657 29.1839C38.2613 28.9642 38.6404 28.7536 39.0008 28.5537L39.0027 28.5526C41.2412 27.3106 42.7501 26.4734 42.931 26.3826C43.7672 25.9335 44.6312 24.7454 42.931 23.8226C42.4046 23.5444 39.6646 22.0272 36.0962 20.0415L31.1002 25.115L36.1001 30.1638Z" fill="#08605F"/>
<path d="M35.1694 19.5546C32.2089 17.9243 16.0675 9.03589 14.9983 8.46173C14.7952 8.33981 14.5788 8.25779 14.3611 8.21228L30.3951 24.403L35.1694 19.5546Z" fill="#08605F"/>
<path d="M13.1354 8.39854L29.692 25.117L13.0736 41.9934C12.6037 41.6736 12.3577 41.0049 12.3577 40.1605V10.2016C12.3577 9.26776 12.6838 8.69314 13.1354 8.39854Z" fill="#08605F"/>
<path d="M85.6304 27.2168C82.6229 27.2168 80.1381 29.5655 80.1381 32.7859C80.1381 35.9799 82.5969 38.3549 85.6307 38.3549C88.6642 38.3549 91.1227 36.0062 91.1227 32.7859C91.1227 29.5655 88.6642 27.2168 85.6304 27.2168ZM85.6304 36.1388C83.9823 36.1388 82.5448 34.7395 82.5448 32.761C82.5448 30.7551 83.9835 29.3832 85.6304 29.3832C87.2773 29.3832 88.7161 30.7551 88.7161 32.761C88.7161 34.7395 87.2773 36.1388 85.6304 36.1388ZM73.6781 27.2168C70.6443 27.2168 68.1855 29.5655 68.1855 32.7859C68.1855 35.9799 70.6443 38.3549 73.6781 38.3549C76.7116 38.3549 79.1704 36.0062 79.1704 32.7859C79.1704 29.5655 76.7116 27.2168 73.6778 27.2168H73.6781ZM73.6781 36.1388C72.0297 36.1388 70.5924 34.7395 70.5924 32.761C70.5924 30.7551 72.0312 29.3832 73.6781 29.3832C75.3262 29.3832 76.7638 30.7551 76.7638 32.761C76.7638 34.7395 75.3508 36.1388 73.6781 36.1388ZM59.4763 28.9326V31.2813H65.0205C64.863 32.6009 64.4197 33.5774 63.7653 34.2378C62.9549 35.0557 61.6994 35.9536 59.4763 35.9536C56.0496 35.9536 53.409 33.1561 53.409 29.6982C53.409 26.2403 56.051 23.3899 59.4763 23.3899C61.3326 23.3899 62.6674 24.1292 63.6611 25.0797L65.308 23.4162C63.9214 22.0706 62.0651 21.0415 59.4763 21.0415C54.7941 21.0415 50.8708 24.9207 50.8708 29.6456C50.8708 34.3707 54.7941 38.25 59.4763 38.25C62.013 38.25 63.8968 37.4058 65.4134 35.8212C66.9564 34.2641 67.4272 32.0729 67.4272 30.3048C67.4272 29.7508 67.3753 29.2491 67.296 28.8266L59.4763 28.9326V28.9326ZM117.591 30.7536C117.146 29.5129 115.734 27.2168 112.909 27.2168C110.083 27.2168 107.756 29.4606 107.756 32.7859C107.756 35.8998 110.083 38.3549 113.17 38.3549C115.681 38.3549 117.12 36.7977 117.721 35.8998L115.864 34.6331C115.236 35.5574 114.4 36.1637 113.17 36.1637C111.941 36.1637 111.078 35.6097 110.528 34.4742L117.825 31.3865L117.591 30.7536V30.7536ZM110.162 32.6283C110.111 30.4898 111.811 29.3817 113.013 29.3817C113.981 29.3817 114.765 29.8568 115.053 30.5698L110.162 32.6283V32.6283ZM104.225 37.9858H106.632V21.6741H104.225V37.9858V37.9858ZM100.303 28.4575H100.225C99.6761 27.7972 98.6563 27.2168 97.3476 27.2168C94.6013 27.2168 92.1167 29.6719 92.1167 32.7859C92.1167 35.8998 94.6274 38.3289 97.3476 38.3289C98.6549 38.3289 99.675 37.7483 100.225 37.0616H100.303V37.8535C100.303 39.992 99.1778 41.1261 97.3737 41.1261C95.9089 41.1261 94.9931 40.0444 94.6274 39.1464L92.5357 40.0444C93.1365 41.5226 94.7328 43.3436 97.3737 43.3436C100.198 43.3436 102.578 41.6541 102.578 37.5633V27.5596H100.303V28.4575V28.4575ZM97.557 36.1388C95.9089 36.1388 94.5234 34.7395 94.5234 32.7873C94.5234 30.8351 95.91 29.4092 97.557 29.4092C99.1792 29.4092 100.487 30.8351 100.487 32.7873C100.485 34.7132 99.1778 36.1388 97.557 36.1388ZM128.811 21.6744H123.057V37.9858H125.464V31.809H128.811C131.479 31.809 134.094 29.8554 134.094 26.7417C134.094 23.6278 131.479 21.6741 128.811 21.6741V21.6744ZM128.889 29.5407H125.488V23.9439H128.889C130.667 23.9439 131.713 25.4485 131.713 26.7414C131.688 28.0084 130.668 29.5407 128.889 29.5407ZM143.693 27.1905C141.967 27.1905 140.162 27.9561 139.43 29.6982L141.549 30.5961C142.02 29.6982 142.856 29.408 143.746 29.408C145.002 29.408 146.257 30.1733 146.283 31.5189V31.6778C145.838 31.414 144.923 31.0438 143.772 31.0438C141.471 31.0438 139.142 32.337 139.142 34.7132C139.142 36.9041 141.026 38.3026 143.118 38.3026C144.74 38.3026 145.629 37.5633 146.178 36.6928H146.256V37.9598H148.583V31.7038C148.557 28.8274 146.439 27.1903 143.693 27.1903V27.1905ZM143.405 36.1125C142.621 36.1125 141.522 35.716 141.522 34.7406C141.522 33.4737 142.881 32.9986 144.058 32.9986C145.104 32.9986 145.601 33.2361 146.256 33.5526C146.072 35.0571 144.791 36.1125 143.405 36.1125V36.1125ZM156.979 27.561L154.233 34.608H154.154L151.304 27.5607H148.716L153.004 37.4318L150.572 42.9485H153.082L159.646 27.5607H156.979L156.979 27.561ZM135.428 37.9858H137.835V21.6741H135.428V37.9858Z" fill="#08605F"/>
<path d="M55.6004 16.5365C54.8737 16.5365 54.2039 16.362 53.5911 16.0128C52.9784 15.6637 52.4903 15.1863 52.1269 14.5807C51.7707 13.9679 51.5925 13.2875 51.5925 12.5393C51.5925 11.7912 51.7707 11.1143 52.1269 10.5087C52.4903 9.8959 52.9784 9.41495 53.5911 9.06581C54.2039 8.71668 54.8737 8.54211 55.6004 8.54211C56.1776 8.54211 56.7155 8.64543 57.2143 8.85206C57.713 9.05869 58.1299 9.34726 58.4647 9.71777L57.6311 10.5514C57.3817 10.2735 57.0825 10.0598 56.7333 9.91015C56.3913 9.76052 56.0101 9.6857 55.5897 9.6857C55.0981 9.6857 54.6385 9.80327 54.211 10.0384C53.7835 10.2735 53.4415 10.6084 53.185 11.043C52.9285 11.4777 52.8002 11.9764 52.8002 12.5393C52.8002 13.1022 52.9285 13.601 53.185 14.0356C53.4415 14.4703 53.7835 14.8051 54.211 15.0403C54.6385 15.2754 55.1017 15.393 55.6004 15.393C56.0564 15.393 56.4376 15.3253 56.744 15.1899C57.0504 15.0545 57.3247 14.8728 57.567 14.6448C57.7237 14.4881 57.8555 14.2921 57.9624 14.057C58.0764 13.8219 58.1512 13.5654 58.1869 13.2875H55.5897V12.2187H59.3198C59.3554 12.4182 59.3732 12.6248 59.3732 12.8386C59.3732 13.3231 59.2984 13.7898 59.1488 14.2387C58.9991 14.6804 58.7604 15.0652 58.4327 15.393C57.713 16.1554 56.769 16.5365 55.6004 16.5365Z" fill="#08605F"/>
<path d="M60.4878 8.71312H65.137V9.85671H61.6849V11.9729H64.795V13.1058H61.6849V15.222H65.137V16.3655H60.4878V8.71312Z" fill="#08605F"/>
<path d="M67.9075 9.85671H65.7699V8.71312H71.242V9.85671H69.1045V16.3655H67.9075V9.85671Z" fill="#08605F"/>
<path d="M74.3715 8.71312H75.5685V16.3655H74.3715V8.71312Z" fill="#08605F"/>
<path d="M78.5973 9.85671H76.4597V8.71312H81.9319V9.85671H79.7943V16.3655H78.5973V9.85671Z" fill="#08605F"/>
<path d="M88.4329 16.5365C87.6919 16.5365 87.0186 16.362 86.413 16.0128C85.8073 15.6566 85.3299 15.1721 84.9808 14.5593C84.6388 13.9466 84.4678 13.2732 84.4678 12.5393C84.4678 11.8054 84.6388 11.1357 84.9808 10.53C85.3299 9.91727 85.8073 9.43276 86.413 9.0765C87.0186 8.72024 87.6919 8.54211 88.4329 8.54211C89.174 8.54211 89.8437 8.72024 90.4422 9.0765C91.0479 9.43276 91.5253 9.91727 91.8744 10.53C92.2235 11.1357 92.3981 11.8054 92.3981 12.5393C92.3981 13.2732 92.2235 13.9466 91.8744 14.5593C91.5324 15.1721 91.0586 15.6566 90.4529 16.0128C89.8473 16.362 89.174 16.5365 88.4329 16.5365ZM88.4329 15.393C88.9388 15.393 89.402 15.2718 89.8223 15.0296C90.2427 14.7873 90.574 14.4524 90.8163 14.0249C91.0586 13.5903 91.1797 13.0951 91.1797 12.5393C91.1797 11.9836 91.0586 11.4919 90.8163 11.0644C90.574 10.6298 90.2427 10.2913 89.8223 10.0491C89.402 9.80683 88.9388 9.6857 88.4329 9.6857C87.9271 9.6857 87.4639 9.80683 87.0435 10.0491C86.6231 10.2913 86.2883 10.6298 86.0389 11.0644C85.7966 11.4919 85.6755 11.9836 85.6755 12.5393C85.6755 13.0951 85.7966 13.5903 86.0389 14.0249C86.2883 14.4524 86.6231 14.7873 87.0435 15.0296C87.4639 15.2718 87.9271 15.393 88.4329 15.393Z" fill="#08605F"/>
<path d="M93.4988 8.71312H94.9202L98.3403 14.2814H98.4044L98.3403 12.8065V8.71312H99.5266V16.3655H98.2762L94.6851 10.5087H94.621L94.6851 11.9836V16.3655H93.4988V8.71312Z" fill="#08605F"/>
</g>
<defs>
<filter id="filter0_b" x="-18" y="-18" width="205" height="86.0988" filterUnits="userSpaceOnUse" color-interpolation-filters="sRGB">
<feFlood flood-opacity="0" result="BackgroundImageFix"/>
<feGaussianBlur in="BackgroundImage" stdDeviation="9"/>
<feComposite in2="SourceAlpha" operator="in" result="effect1_backgroundBlur"/>
<feBlend mode="normal" in="SourceGraphic" in2="effect1_backgroundBlur" result="shape"/>
</filter>
<clipPath id="clip0">
<rect width="169" height="50.0988" fill="white"/>
</clipPath>
</defs>
</svg>
