<svg width="81" height="78" viewBox="0 0 81 78" fill="none" xmlns="http://www.w3.org/2000/svg">
<path d="M48.8154 9.20648C41.0187 9.20648 27.8401 19.6216 27.8401 32.4693C27.8401 56.6313 61.2509 62.7566 75.172 57.1882C89.0932 51.6197 74.5223 45.8191 68.165 33.4757C60.926 16.5238 60.3997 9.20648 48.8154 9.20648Z" fill="url(#paint0_linear)"/>
<path d="M48.8154 9.20648C41.0187 9.20648 27.8401 19.6216 27.8401 32.4693C27.8401 56.6313 61.2509 62.7566 75.172 57.1882C89.0932 51.6197 74.5223 45.8191 68.165 33.4757C60.926 16.5238 60.3997 9.20648 48.8154 9.20648Z" fill="url(#paint1_linear)"/>
<path d="M48.8154 9.20648C41.0187 9.20648 27.8401 19.6216 27.8401 32.4693C27.8401 56.6313 61.2509 62.7566 75.172 57.1882C89.0932 51.6197 74.5223 45.8191 68.165 33.4757C60.926 16.5238 60.3997 9.20648 48.8154 9.20648Z" fill="url(#paint2_linear)"/>
<g filter="url(#filter0_f)">
<path d="M38.1882 38.673C40.3484 42.72 42.875 45.3552 42.875 45.4016C40.8176 46.4998 36.6959 44.3263 34.5357 40.2793C32.3755 36.2323 32.2922 32.0612 34.3496 30.963C34.3367 30.8771 36.028 34.626 38.1882 38.673Z" fill="white" fill-opacity="0.7"/>
</g>
<path d="M20.5353 19.0582C14.0045 17.9945 9.54286 13.8471 9.54286 13.8471C9.54286 13.8471 18.2876 9.26917 24.8184 10.3329C31.3492 11.3966 33.1929 17.6992 33.1929 17.6992C33.1929 17.6992 27.0661 20.1219 20.5353 19.0582Z" fill="url(#paint3_linear)"/>
<defs>
<filter id="filter0_f" x="0.623779" y="0.621826" width="72.2515" height="77.1082" filterUnits="userSpaceOnUse" color-interpolation-filters="sRGB">
<feFlood flood-opacity="0" result="BackgroundImageFix"/>
<feBlend mode="normal" in="SourceGraphic" in2="BackgroundImageFix" result="shape"/>
<feGaussianBlur stdDeviation="15" result="effect1_foregroundBlur"/>
</filter>
<linearGradient id="paint0_linear" x1="81.2892" y1="34.1526" x2="27.84" y2="34.1526" gradientUnits="userSpaceOnUse">
<stop stop-color="white"/>
<stop offset="1" stop-color="white" stop-opacity="0"/>
</linearGradient>
<linearGradient id="paint1_linear" x1="27.84" y1="6.79342" x2="93.9656" y2="56.3064" gradientUnits="userSpaceOnUse">
<stop stop-color="#E07733"/>
<stop offset="1" stop-color="#F5B83D" stop-opacity="0.72"/>
</linearGradient>
<linearGradient id="paint2_linear" x1="69.7892" y1="4.70525" x2="25.1486" y2="38.3017" gradientUnits="userSpaceOnUse">
<stop stop-color="#F18701" stop-opacity="0.26"/>
<stop offset="1" stop-color="white" stop-opacity="0.03"/>
</linearGradient>
<linearGradient id="paint3_linear" x1="33.3977" y1="16.4418" x2="9.74768" y2="12.5897" gradientUnits="userSpaceOnUse">
<stop stop-color="#3D9537"/>
<stop offset="1" stop-color="#08605F"/>
</linearGradient>
</defs>
</svg>
