<svg width="255" height="137" viewBox="0 0 255 137" fill="none" xmlns="http://www.w3.org/2000/svg">
<path d="M127.5 48.2083C133.644 48.2083 138.625 43.2275 138.625 37.0833C138.625 30.9391 133.644 25.9583 127.5 25.9583C121.356 25.9583 116.375 30.9391 116.375 37.0833C116.375 43.2275 121.356 48.2083 127.5 48.2083Z" stroke="#08605F" stroke-width="4.83333" stroke-linecap="round" stroke-linejoin="round"/>
<path d="M127.5 7.41663C119.632 7.41663 112.086 10.5422 106.523 16.1058C100.959 21.6694 97.8335 29.2152 97.8335 37.0833C97.8335 44.0995 99.3242 48.6904 103.396 53.7708L127.5 81.5833L151.604 53.7708C155.676 48.6904 157.167 44.0995 157.167 37.0833C157.167 29.2152 154.041 21.6694 148.478 16.1058C142.914 10.5422 135.368 7.41663 127.5 7.41663V7.41663Z" stroke="#08605F" stroke-width="4.83333" stroke-linecap="round" stroke-linejoin="round"/>
<path d="M103.882 120.11H99.782V132H96.402V120.11H92.302V117.43H103.882V120.11ZM107.656 121.47C108.443 121.47 109.16 121.593 109.806 121.84C110.453 122.087 111.006 122.44 111.466 122.9C111.933 123.36 112.293 123.92 112.546 124.58C112.806 125.233 112.936 125.97 112.936 126.79C112.936 127.617 112.806 128.363 112.546 129.03C112.293 129.69 111.933 130.253 111.466 130.72C111.006 131.18 110.453 131.537 109.806 131.79C109.16 132.037 108.443 132.16 107.656 132.16C106.863 132.16 106.14 132.037 105.486 131.79C104.84 131.537 104.28 131.18 103.806 130.72C103.34 130.253 102.976 129.69 102.716 129.03C102.463 128.363 102.336 127.617 102.336 126.79C102.336 125.97 102.463 125.233 102.716 124.58C102.976 123.92 103.34 123.36 103.806 122.9C104.28 122.44 104.84 122.087 105.486 121.84C106.14 121.593 106.863 121.47 107.656 121.47ZM107.656 129.86C108.37 129.86 108.893 129.61 109.226 129.11C109.566 128.603 109.736 127.837 109.736 126.81C109.736 125.783 109.566 125.02 109.226 124.52C108.893 124.02 108.37 123.77 107.656 123.77C106.923 123.77 106.386 124.02 106.046 124.52C105.706 125.02 105.536 125.783 105.536 126.81C105.536 127.837 105.706 128.603 106.046 129.11C106.386 129.61 106.923 129.86 107.656 129.86ZM117.397 123.23C117.717 122.67 118.084 122.23 118.497 121.91C118.917 121.59 119.397 121.43 119.937 121.43C120.404 121.43 120.784 121.54 121.077 121.76L120.877 124.04C120.844 124.187 120.787 124.287 120.707 124.34C120.634 124.393 120.531 124.42 120.397 124.42C120.344 124.42 120.274 124.417 120.187 124.41C120.101 124.403 120.011 124.397 119.917 124.39C119.824 124.377 119.727 124.367 119.627 124.36C119.534 124.347 119.447 124.34 119.367 124.34C118.914 124.34 118.551 124.46 118.277 124.7C118.011 124.94 117.784 125.273 117.597 125.7V132H114.497V121.63H116.337C116.491 121.63 116.617 121.643 116.717 121.67C116.824 121.697 116.911 121.74 116.977 121.8C117.051 121.853 117.104 121.927 117.137 122.02C117.177 122.113 117.211 122.227 117.237 122.36L117.397 123.23ZM126.738 121.47C127.525 121.47 128.242 121.593 128.888 121.84C129.535 122.087 130.088 122.44 130.548 122.9C131.015 123.36 131.375 123.92 131.628 124.58C131.888 125.233 132.018 125.97 132.018 126.79C132.018 127.617 131.888 128.363 131.628 129.03C131.375 129.69 131.015 130.253 130.548 130.72C130.088 131.18 129.535 131.537 128.888 131.79C128.242 132.037 127.525 132.16 126.738 132.16C125.945 132.16 125.222 132.037 124.568 131.79C123.922 131.537 123.362 131.18 122.888 130.72C122.422 130.253 122.058 129.69 121.798 129.03C121.545 128.363 121.418 127.617 121.418 126.79C121.418 125.97 121.545 125.233 121.798 124.58C122.058 123.92 122.422 123.36 122.888 122.9C123.362 122.44 123.922 122.087 124.568 121.84C125.222 121.593 125.945 121.47 126.738 121.47ZM126.738 129.86C127.452 129.86 127.975 129.61 128.308 129.11C128.648 128.603 128.818 127.837 128.818 126.81C128.818 125.783 128.648 125.02 128.308 124.52C127.975 124.02 127.452 123.77 126.738 123.77C126.005 123.77 125.468 124.02 125.128 124.52C124.788 125.02 124.618 125.783 124.618 126.81C124.618 127.837 124.788 128.603 125.128 129.11C125.468 129.61 126.005 129.86 126.738 129.86ZM136.439 122.75C136.639 122.563 136.846 122.39 137.059 122.23C137.273 122.07 137.499 121.937 137.739 121.83C137.986 121.717 138.249 121.63 138.529 121.57C138.816 121.503 139.126 121.47 139.459 121.47C140.026 121.47 140.526 121.57 140.959 121.77C141.399 121.963 141.769 122.237 142.069 122.59C142.369 122.937 142.596 123.353 142.749 123.84C142.903 124.32 142.979 124.843 142.979 125.41V132H139.879V125.41C139.879 124.903 139.763 124.51 139.529 124.23C139.296 123.943 138.953 123.8 138.499 123.8C138.159 123.8 137.839 123.873 137.539 124.02C137.246 124.16 136.959 124.353 136.679 124.6V132H133.579V121.63H135.499C135.886 121.63 136.139 121.803 136.259 122.15L136.439 122.75ZM148.559 132.16C148.065 132.16 147.629 132.09 147.249 131.95C146.875 131.803 146.559 131.6 146.299 131.34C146.045 131.073 145.852 130.753 145.719 130.38C145.585 130.007 145.519 129.59 145.519 129.13V123.77H144.639C144.479 123.77 144.342 123.72 144.229 123.62C144.115 123.513 144.059 123.36 144.059 123.16V121.95L145.709 121.63L146.319 119.1C146.399 118.78 146.625 118.62 146.999 118.62H148.619V121.65H151.189V123.77H148.619V128.92C148.619 129.16 148.675 129.36 148.789 129.52C148.909 129.673 149.079 129.75 149.299 129.75C149.412 129.75 149.505 129.74 149.579 129.72C149.659 129.693 149.725 129.667 149.779 129.64C149.839 129.607 149.892 129.58 149.939 129.56C149.992 129.533 150.052 129.52 150.119 129.52C150.212 129.52 150.285 129.543 150.339 129.59C150.399 129.63 150.459 129.697 150.519 129.79L151.459 131.26C151.059 131.56 150.609 131.787 150.109 131.94C149.609 132.087 149.092 132.16 148.559 132.16ZM157.207 121.47C157.994 121.47 158.71 121.593 159.357 121.84C160.004 122.087 160.557 122.44 161.017 122.9C161.484 123.36 161.844 123.92 162.097 124.58C162.357 125.233 162.487 125.97 162.487 126.79C162.487 127.617 162.357 128.363 162.097 129.03C161.844 129.69 161.484 130.253 161.017 130.72C160.557 131.18 160.004 131.537 159.357 131.79C158.71 132.037 157.994 132.16 157.207 132.16C156.414 132.16 155.69 132.037 155.037 131.79C154.39 131.537 153.83 131.18 153.357 130.72C152.89 130.253 152.527 129.69 152.267 129.03C152.014 128.363 151.887 127.617 151.887 126.79C151.887 125.97 152.014 125.233 152.267 124.58C152.527 123.92 152.89 123.36 153.357 122.9C153.83 122.44 154.39 122.087 155.037 121.84C155.69 121.593 156.414 121.47 157.207 121.47ZM157.207 129.86C157.92 129.86 158.444 129.61 158.777 129.11C159.117 128.603 159.287 127.837 159.287 126.81C159.287 125.783 159.117 125.02 158.777 124.52C158.444 124.02 157.92 123.77 157.207 123.77C156.474 123.77 155.937 124.02 155.597 124.52C155.257 125.02 155.087 125.783 155.087 126.81C155.087 127.837 155.257 128.603 155.597 129.11C155.937 129.61 156.474 129.86 157.207 129.86Z" fill="#08605F"/>
</svg>