<svg width="483" height="437" viewBox="0 0 483 437" fill="none" xmlns="http://www.w3.org/2000/svg">
<path fill-rule="evenodd" clip-rule="evenodd" d="M227.825 2.8165C273.155 -1.46416 324.233 -4.6954 360.07 23.3038C395.509 50.9923 389.919 105.334 410.28 145.367C431.867 187.813 483.749 217.414 482.992 264.996C482.233 312.72 442.344 351.108 406.503 382.758C373.616 411.801 332.638 430.774 289.048 436.267C249.27 441.279 213.179 419.201 173.724 412.09C128.182 403.881 73.9455 421.853 39.3104 391.254C4.67259 360.653 -5.18147 306.246 2.40347 260.733C9.42775 218.585 58.505 198.281 77.8264 160.142C95.9742 124.319 83.0239 75.9364 110.759 46.847C140.085 16.0883 185.445 6.81856 227.825 2.8165Z" fill="#EBF1F1"/>
<g clip-path="url(#clip0)">
<path d="M475 394.118H219.92V395.217H475V394.118Z" fill="#3F3D56"/>
<path d="M427.396 207.195C427.887 207.772 428.251 208.445 428.465 209.171C428.679 209.897 428.739 210.66 428.639 211.41C428.539 212.16 428.283 212.881 427.886 213.527C427.49 214.172 426.962 214.726 426.338 215.155L399.939 233.264L388.315 241.007C387.654 241.446 386.854 241.625 386.069 241.508C385.284 241.39 384.571 240.986 384.069 240.372V240.372C383.776 240.014 383.564 239.597 383.448 239.15C383.332 238.702 383.315 238.235 383.398 237.78C383.48 237.325 383.661 236.894 383.926 236.515C384.192 236.137 384.537 235.821 384.937 235.589L396.196 229.057L415.846 210.359L403.214 196.803L412.571 189.791L427.396 207.195Z" fill="#A0616A"/>
<path d="M365.318 377.705H358.861L355.025 324.416L371.4 323.948L365.318 377.705Z" fill="#A0616A"/>
<path d="M365.786 395.001C364.064 395.786 362.622 389.424 361.17 390.85C357.107 394.839 350.886 395.708 345.463 393.966L347.361 393.945C347.034 393.84 346.732 393.67 346.472 393.444C346.213 393.219 346.002 392.944 345.852 392.634C345.703 392.325 345.617 391.989 345.601 391.646C345.586 391.303 345.64 390.96 345.76 390.639V390.639C345.905 390.254 346.141 389.91 346.448 389.636C346.755 389.363 347.123 389.168 347.522 389.068L351.843 387.989L358.627 376.069L365.552 375.602C367.096 377.568 368.173 379.859 368.704 382.301C369.234 384.744 369.202 387.275 368.612 389.704C367.984 392.267 367.014 394.441 365.786 395.001Z" fill="#2F2E41"/>
<path d="M408.314 377.705H401.857L398.021 324.416L414.864 321.144L408.314 377.705Z" fill="#A0616A"/>
<path d="M408.782 395.001C407.06 395.786 405.618 389.424 404.166 390.85C400.103 394.839 393.882 395.708 388.459 393.966L390.357 393.945C390.03 393.84 389.728 393.67 389.468 393.444C389.209 393.219 388.998 392.944 388.848 392.634C388.699 392.325 388.613 391.989 388.598 391.646C388.582 391.303 388.636 390.96 388.757 390.639C388.901 390.254 389.137 389.91 389.444 389.636C389.751 389.363 390.12 389.168 390.519 389.068L394.839 387.989L401.623 376.069L409.016 375.134L409.203 375.439C410.632 377.741 411.554 380.32 411.906 383.006C412.258 385.691 412.033 388.421 411.246 391.013C410.631 392.981 409.794 394.539 408.782 395.001Z" fill="#2F2E41"/>
<path d="M415.636 190.997C409.698 191.822 405.587 195.071 403.912 201.553L392.997 181.417C392.349 180.137 392.185 178.667 392.535 177.277C392.884 175.886 393.723 174.667 394.898 173.845C396.146 172.971 397.68 172.608 399.187 172.828C400.694 173.048 402.06 173.836 403.004 175.03L415.636 190.997Z" fill="#08605F"/>
<path d="M427.075 318.807C400.534 330.539 373.373 331.983 345.668 324.416C355.785 285.212 367.731 249.762 367.657 220.643L394.793 218.305L398.971 224.923C408.883 240.625 415.726 258.062 419.135 276.311L427.075 318.807Z" fill="#2F2E41"/>
<path d="M382.629 160.342C390.38 160.342 396.664 154.063 396.664 146.319C396.664 138.574 390.38 132.295 382.629 132.295C374.877 132.295 368.593 138.574 368.593 146.319C368.593 154.063 374.877 160.342 382.629 160.342Z" fill="#A0616A"/>
<path d="M398.068 171.093L380.757 172.028L377.95 156.602L391.986 154.265L398.068 171.093Z" fill="#A0616A"/>
<path d="M396.196 220.643L377.232 221.176L367.657 222.512C362.958 207.001 359.001 191.525 368.593 178.572L379.822 167.354L396.664 166.886L396.887 167.014C399.562 168.545 401.635 170.941 402.765 173.806C403.894 176.672 404.013 179.837 403.101 182.779C398.922 196.35 396.237 209.164 396.196 220.643Z" fill="#08605F"/>
<path d="M367.19 264.115L366.013 280.179C365.95 281.039 365.578 281.848 364.966 282.456C364.353 283.064 363.541 283.43 362.68 283.488V283.488C362.183 283.521 361.686 283.45 361.218 283.28C360.75 283.11 360.323 282.845 359.964 282.501C359.605 282.157 359.321 281.742 359.132 281.283C358.942 280.823 358.85 280.329 358.862 279.832L359.236 264.115L370.932 219.708L371.4 192.596L384.5 192.128L383.564 223.447L367.19 264.115Z" fill="#A0616A"/>
<path d="M385.904 194.466C380.35 192.209 375.163 192.965 370.465 197.738L371.108 174.847C371.19 173.415 371.784 172.061 372.784 171.032C373.783 170.003 375.12 169.368 376.55 169.243V169.243C378.067 169.112 379.577 169.565 380.771 170.509C381.965 171.454 382.753 172.819 382.972 174.325L385.904 194.466Z" fill="#08605F"/>
<path d="M412.337 208.723H369.295C379.336 182.157 382.574 157.443 369.295 136.268C369.523 129.909 377.687 124.395 384.027 125.004C391.515 125.724 401.577 131.221 402.98 138.606L412.337 208.723Z" fill="#2F2E41"/>
<path d="M275.163 123.837H273.2V70.1008C273.2 66.0166 272.395 61.9724 270.831 58.199C269.266 54.4257 266.973 50.9972 264.083 48.1092C261.193 45.2212 257.761 42.9304 253.984 41.3674C250.208 39.8044 246.16 39 242.072 39H128.128C124.04 39 119.992 39.8044 116.216 41.3674C112.439 42.9304 109.008 45.2212 106.117 48.1092C103.227 50.9972 100.934 54.4257 99.3694 58.1991C97.8051 61.9724 97 66.0166 97 70.1008V364.899C97 368.983 97.8051 373.028 99.3694 376.801C100.934 380.574 103.227 384.003 106.117 386.891C109.008 389.779 112.439 392.07 116.216 393.633C119.992 395.196 124.04 396 128.128 396H242.072C246.16 396 250.208 395.196 253.984 393.633C257.761 392.07 261.193 389.779 264.083 386.891C266.974 384.003 269.266 380.574 270.831 376.801C272.395 373.028 273.2 368.983 273.2 364.899V162.087H275.163V123.837Z" fill="#3F3D56"/>
<path d="M243.328 47.0913H228.455C229.139 48.7668 229.4 50.5847 229.215 52.3847C229.03 54.1848 228.405 55.9118 227.395 57.4137C226.385 58.9155 225.021 60.1461 223.422 60.9971C221.824 61.848 220.041 62.2931 218.23 62.2933H152.952C151.141 62.2931 149.358 61.848 147.759 60.9971C146.161 60.1461 144.797 58.9155 143.787 57.4137C142.776 55.9118 142.151 54.1848 141.967 52.3847C141.782 50.5847 142.043 48.7668 142.727 47.0913H128.835C125.782 47.0913 122.759 47.6921 119.939 48.8593C117.119 50.0265 114.556 51.7373 112.398 53.894C110.239 56.0507 108.527 58.611 107.359 61.4289C106.19 64.2468 105.589 67.267 105.589 70.317V364.683C105.589 367.733 106.19 370.753 107.359 373.571C108.527 376.389 110.239 378.949 112.398 381.106C114.556 383.263 117.119 384.973 119.939 386.141C122.759 387.308 125.782 387.909 128.835 387.909H243.328C246.381 387.909 249.404 387.308 252.224 386.141C255.044 384.973 257.607 383.263 259.766 381.106C261.924 378.949 263.636 376.389 264.805 373.571C265.973 370.753 266.574 367.733 266.574 364.683V70.317C266.574 64.1572 264.125 58.2496 259.766 53.8939C255.406 49.5383 249.494 47.0913 243.328 47.0913V47.0913Z" fill="white"/>
<path d="M246.469 93.0734H125.694V196.576H246.469V93.0734Z" fill="#E6E6E6"/>
<path d="M161.534 218.16C166.414 218.16 170.371 214.207 170.371 209.33C170.371 204.454 166.414 200.5 161.534 200.5C156.653 200.5 152.697 204.454 152.697 209.33C152.697 214.207 156.653 218.16 161.534 218.16Z" fill="#08605F"/>
<path d="M165.953 208.594H162.271V204.915H160.798V208.594H157.115V210.066H160.798V213.745H162.271V210.066H165.953V208.594Z" fill="white"/>
<path d="M208.175 218.16C213.055 218.16 217.012 214.207 217.012 209.33C217.012 204.454 213.055 200.5 208.175 200.5C203.294 200.5 199.337 204.454 199.337 209.33C199.337 214.207 203.294 218.16 208.175 218.16Z" fill="#08605F"/>
<path d="M212.593 210.066V208.594H203.756V210.066H212.593Z" fill="white"/>
<path d="M190.586 105.982H181.042C180.706 105.982 180.384 106.115 180.147 106.352C179.91 106.589 179.776 106.911 179.776 107.246V111.432C179.776 111.767 179.91 112.089 180.147 112.326C180.384 112.563 180.706 112.696 181.042 112.696H182.623V118.968H189.004V112.696H190.586C190.922 112.696 191.244 112.563 191.481 112.326C191.718 112.089 191.851 111.767 191.851 111.432V107.246C191.851 106.911 191.718 106.589 191.481 106.352C191.244 106.115 190.922 105.982 190.586 105.982Z" fill="#08605F"/>
<path d="M200.146 144.289C194.301 135.743 191.312 125.568 191.609 115.222C191.615 114.983 191.537 114.75 191.39 114.562C191.243 114.374 191.035 114.242 190.802 114.19V112.381H180.722V114.165H180.583C180.447 114.165 180.312 114.192 180.187 114.244C180.061 114.296 179.948 114.372 179.852 114.468C179.756 114.564 179.68 114.678 179.628 114.804C179.576 114.929 179.549 115.064 179.55 115.199C179.55 115.225 179.551 115.25 179.552 115.275C180.347 126.335 177.665 136.254 171.508 145.031C171.153 145.535 170.972 146.141 170.992 146.757L172.094 180.822C172.121 181.581 172.44 182.302 172.985 182.832C173.53 183.362 174.259 183.662 175.02 183.668H197.82C198.59 183.661 199.326 183.355 199.873 182.814C200.42 182.273 200.734 181.54 200.748 180.771L201.173 147.697C201.185 146.483 200.827 145.294 200.146 144.289V144.289Z" fill="#3F3D56"/>
<path opacity="0.2" d="M188.597 107.346C188.597 108.069 188.309 108.763 187.797 109.274C187.285 109.786 186.591 110.073 185.866 110.073C185.142 110.073 184.448 109.786 183.936 109.274C183.424 108.763 183.136 108.069 183.136 107.346" fill="black"/>
<path d="M196.537 155.604H193.776C193.512 153.895 192.645 152.337 191.332 151.211C190.018 150.086 188.345 149.467 186.614 149.467C184.883 149.467 183.21 150.086 181.896 151.211C180.583 152.337 179.716 153.895 179.452 155.604H176.691C176.398 155.604 176.107 155.668 175.84 155.79C175.573 155.913 175.336 156.092 175.145 156.314C174.954 156.537 174.813 156.799 174.732 157.081C174.651 157.363 174.633 157.659 174.677 157.95L177.676 177.426H194.897L198.539 158.015C198.594 157.721 198.584 157.419 198.509 157.129C198.434 156.84 198.296 156.57 198.104 156.34C197.913 156.11 197.674 155.924 197.403 155.797C197.132 155.67 196.836 155.604 196.537 155.604V155.604Z" fill="#08605F"/>
<path d="M246.469 238.762H125.694V342.265H246.469V238.762Z" fill="#E6E6E6"/>
<path d="M161.534 363.848C166.414 363.848 170.371 359.895 170.371 355.019C170.371 350.142 166.414 346.189 161.534 346.189C156.653 346.189 152.697 350.142 152.697 355.019C152.697 359.895 156.653 363.848 161.534 363.848Z" fill="#08605F"/>
<path d="M165.953 354.283H162.271V350.604H160.798V354.283H157.115V355.755H160.798V359.434H162.271V355.755H165.953V354.283Z" fill="white"/>
<path d="M208.175 363.848C213.055 363.848 217.012 359.895 217.012 355.019C217.012 350.142 213.055 346.189 208.175 346.189C203.294 346.189 199.337 350.142 199.337 355.019C199.337 359.895 203.294 363.848 208.175 363.848Z" fill="#08605F"/>
<path d="M212.593 355.755V354.283H203.756V355.755H212.593Z" fill="white"/>
<path d="M209.858 312.292L209.924 312.292C212.198 312.311 214.425 311.645 216.315 310.381C218.204 309.116 219.668 307.312 220.516 305.204C223.187 298.455 223.813 291.069 222.314 283.967C220.816 276.865 217.26 270.361 212.089 265.263C206.918 260.166 200.36 256.701 193.232 255.3C186.105 253.899 178.722 254.623 172.004 257.384C165.285 260.144 159.528 264.817 155.448 270.823C151.369 276.828 149.148 283.9 149.061 291.157C148.974 298.415 151.026 305.537 154.961 311.638C158.896 317.739 164.541 322.548 171.191 325.468C173.258 326.382 175.554 326.651 177.776 326.239C179.999 325.828 182.045 324.754 183.647 323.16C187.082 319.71 191.166 316.974 195.665 315.108C200.163 313.243 204.987 312.286 209.858 312.292V312.292Z" fill="white"/>
<path d="M190.837 301.093C197.59 301.093 203.064 295.623 203.064 288.876C203.064 282.128 197.59 276.658 190.837 276.658C184.083 276.658 178.609 282.128 178.609 288.876C178.609 295.623 184.083 301.093 190.837 301.093Z" fill="#F9A825"/>
</g>
<defs>
<clipPath id="clip0">
<rect width="378" height="357" fill="white" transform="translate(97 39)"/>
</clipPath>
</defs>
</svg>
